<?xml version="1.0" encoding="UTF-8"?>

<svg viewBox="0 0 400 301">
  <defs/>
  <g>
    <rect x="0.0" y="0.0" height="301.0" width="400.0" fill="white"/>
    <line stroke="black" x1="80.0" y1="236.0" x2="346.0" y2="236.0"/>
    <text transform="translate(208.0,15.0)" text-anchor="middle">Age</text>
    <line stroke="black" x1="80.0" y1="20.0" x2="80.0" y2="236.0"/>
    <line stroke="black" x1="77.0" y1="236.0" x2="80.0" y2="236.0"/>
    <text transform="translate(73.0,236.0)" text-anchor="end"> 0</text>
    <line stroke="black" x1="77.0" y1="220.57142857142858" x2="80.0" y2="220.57142857142858"/>
    <text transform="translate(73.0,220.57142857142858)" text-anchor="end"> 500</text>
    <line stroke="black" x1="77.0" y1="205.14285714285714" x2="80.0" y2="205.14285714285714"/>
    <text transform="translate(73.0,205.14285714285714)" text-anchor="end"> 1000</text>
    <line stroke="black" x1="77.0" y1="189.71428571428572" x2="80.0" y2="189.71428571428572"/>
    <text transform="translate(73.0,189.71428571428572)" text-anchor="end"> 1500</text>
    <line stroke="black" x1="77.0" y1="174.28571428571428" x2="80.0" y2="174.28571428571428"/>
    <text transform="translate(73.0,174.28571428571428)" text-anchor="end"> 2000</text>
    <line stroke="black" x1="77.0" y1="158.85714285714286" x2="80.0" y2="158.85714285714286"/>
    <text transform="translate(73.0,158.85714285714286)" text-anchor="end"> 2500</text>
    <line stroke="black" x1="77.0" y1="143.42857142857144" x2="80.0" y2="143.42857142857144"/>
    <text transform="translate(73.0,143.42857142857144)" text-anchor="end"> 3000</text>
    <line stroke="black" x1="77.0" y1="128.0" x2="80.0" y2="128.0"/>
    <text transform="translate(73.0,128.0)" text-anchor="end"> 3500</text>
    <line stroke="black" x1="77.0" y1="112.57142857142857" x2="80.0" y2="112.57142857142857"/>
    <text transform="translate(73.0,112.57142857142857)" text-anchor="end"> 4000</text>
    <line stroke="black" x1="77.0" y1="97.14285714285714" x2="80.0" y2="97.14285714285714"/>
    <text transform="translate(73.0,97.14285714285714)" text-anchor="end"> 4500</text>
    <line stroke="black" x1="77.0" y1="81.71428571428572" x2="80.0" y2="81.71428571428572"/>
    <text transform="translate(73.0,81.71428571428572)" text-anchor="end"> 5000</text>
    <line stroke="black" x1="77.0" y1="66.28571428571428" x2="80.0" y2="66.28571428571428"/>
    <text transform="translate(73.0,66.28571428571428)" text-anchor="end"> 5500</text>
    <line stroke="black" x1="77.0" y1="50.85714285714286" x2="80.0" y2="50.85714285714286"/>
    <text transform="translate(73.0,50.85714285714286)" text-anchor="end"> 6000</text>
    <line stroke="black" x1="77.0" y1="35.428571428571416" x2="80.0" y2="35.428571428571416"/>
    <text transform="translate(73.0,35.428571428571416)" text-anchor="end"> 6500</text>
    <line stroke="black" x1="77.0" y1="20.0" x2="80.0" y2="20.0"/>
    <text transform="translate(73.0,20.0)" text-anchor="end"> 7000</text>
    <text transform="translate(30.0,128.0) rotate(270)" text-anchor="middle">count()</text>
    <rect x="81.06666666666666" y="229.0" height="7.0" width="19.2" fill="#9999FF" style="stroke:black"/>
    <text transform="translate(87.66666666666667,241.0) rotate(90)" text-anchor="start">&lt;= 19</text>
    <circle cx="90.66666666666667" cy="222" r="2" fill="black"/>
    <line stroke="black" x1="90.66666666666667" y1="222.0" x2="90.66666666666667" y2="218.0"/>
    <line stroke="black" x1="88.66666666666667" y1="218.0" x2="92.66666666666667" y2="218.0"/>
    <line stroke="black" x1="90.66666666666667" y1="222.0" x2="90.66666666666667" y2="225.0"/>
    <line stroke="black" x1="88.66666666666667" y1="225.0" x2="92.66666666666667" y2="225.0"/>
    <rect x="102.39999999999999" y="169.0" height="67.0" width="19.2" fill="#9999FF" style="stroke:black"/>
    <text transform="translate(109.0,241.0) rotate(90)" text-anchor="start">20 to 23</text>
    <circle cx="112.0" cy="221" r="2" fill="black"/>
    <line stroke="black" x1="112.0" y1="221.0" x2="112.0" y2="220.0"/>
    <line stroke="black" x1="110.0" y1="220.0" x2="114.0" y2="220.0"/>
    <line stroke="black" x1="112.0" y1="221.0" x2="112.0" y2="222.0"/>
    <line stroke="black" x1="110.0" y1="222.0" x2="114.0" y2="222.0"/>
    <rect x="123.73333333333332" y="102.0" height="134.0" width="19.2" fill="#9999FF" style="stroke:black"/>
    <text transform="translate(130.33333333333331,241.0) rotate(90)" text-anchor="start">24 to 27</text>
    <circle cx="133.33333333333331" cy="223" r="2" fill="black"/>
    <line stroke="black" x1="133.33333333333331" y1="223.0" x2="133.33333333333331" y2="222.0"/>
    <line stroke="black" x1="131.33333333333331" y1="222.0" x2="135.33333333333331" y2="222.0"/>
    <line stroke="black" x1="133.33333333333331" y1="223.0" x2="133.33333333333331" y2="224.0"/>
    <line stroke="black" x1="131.33333333333331" y1="224.0" x2="135.33333333333331" y2="224.0"/>
    <rect x="145.06666666666666" y="51.0" height="185.0" width="19.2" fill="#9999FF" style="stroke:black"/>
    <text transform="translate(151.66666666666666,241.0) rotate(90)" text-anchor="start">28 to 31</text>
    <circle cx="154.66666666666666" cy="224" r="2" fill="black"/>
    <line stroke="black" x1="154.66666666666666" y1="224.0" x2="154.66666666666666" y2="224.0"/>
    <line stroke="black" x1="152.66666666666666" y1="224.0" x2="156.66666666666666" y2="224.0"/>
    <line stroke="black" x1="154.66666666666666" y1="224.0" x2="154.66666666666666" y2="225.0"/>
    <line stroke="black" x1="152.66666666666666" y1="225.0" x2="156.66666666666666" y2="225.0"/>
    <rect x="166.39999999999998" y="34.0" height="202.0" width="19.2" fill="#9999FF" style="stroke:black"/>
    <text transform="translate(172.99999999999997,241.0) rotate(90)" text-anchor="start">32 to 35</text>
    <circle cx="175.99999999999997" cy="225" r="2" fill="black"/>
    <line stroke="black" x1="175.99999999999997" y1="225.0" x2="175.99999999999997" y2="224.0"/>
    <line stroke="black" x1="173.99999999999997" y1="224.0" x2="177.99999999999997" y2="224.0"/>
    <line stroke="black" x1="175.99999999999997" y1="225.0" x2="175.99999999999997" y2="225.0"/>
    <line stroke="black" x1="173.99999999999997" y1="225.0" x2="177.99999999999997" y2="225.0"/>
    <rect x="187.73333333333332" y="39.0" height="197.0" width="19.2" fill="#9999FF" style="stroke:black"/>
    <text transform="translate(194.33333333333331,241.0) rotate(90)" text-anchor="start">36 to 39</text>
    <circle cx="197.33333333333331" cy="224" r="2" fill="black"/>
    <line stroke="black" x1="197.33333333333331" y1="224.0" x2="197.33333333333331" y2="223.0"/>
    <line stroke="black" x1="195.33333333333331" y1="223.0" x2="199.33333333333331" y2="223.0"/>
    <line stroke="black" x1="197.33333333333331" y1="224.0" x2="197.33333333333331" y2="224.0"/>
    <line stroke="black" x1="195.33333333333331" y1="224.0" x2="199.33333333333331" y2="224.0"/>
    <rect x="209.06666666666666" y="63.0" height="173.0" width="19.2" fill="#9999FF" style="stroke:black"/>
    <text transform="translate(215.66666666666666,241.0) rotate(90)" text-anchor="start">40 to 43</text>
    <circle cx="218.66666666666666" cy="224" r="2" fill="black"/>
    <line stroke="black" x1="218.66666666666666" y1="224.0" x2="218.66666666666666" y2="224.0"/>
    <line stroke="black" x1="216.66666666666666" y1="224.0" x2="220.66666666666666" y2="224.0"/>
    <line stroke="black" x1="218.66666666666666" y1="224.0" x2="218.66666666666666" y2="225.0"/>
    <line stroke="black" x1="216.66666666666666" y1="225.0" x2="220.66666666666666" y2="225.0"/>
    <rect x="230.39999999999998" y="62.0" height="174.0" width="19.2" fill="#9999FF" style="stroke:black"/>
    <text transform="translate(236.99999999999997,241.0) rotate(90)" text-anchor="start">44 to 47</text>
    <circle cx="239.99999999999997" cy="223" r="2" fill="black"/>
    <line stroke="black" x1="239.99999999999997" y1="223.0" x2="239.99999999999997" y2="223.0"/>
    <line stroke="black" x1="237.99999999999997" y1="223.0" x2="241.99999999999997" y2="223.0"/>
    <line stroke="black" x1="239.99999999999997" y1="223.0" x2="239.99999999999997" y2="224.0"/>
    <line stroke="black" x1="237.99999999999997" y1="224.0" x2="241.99999999999997" y2="224.0"/>
    <rect x="251.73333333333332" y="106.0" height="130.0" width="19.2" fill="#9999FF" style="stroke:black"/>
    <text transform="translate(258.3333333333333,241.0) rotate(90)" text-anchor="start">48 to 51</text>
    <circle cx="261.3333333333333" cy="223" r="2" fill="black"/>
    <line stroke="black" x1="261.3333333333333" y1="223.0" x2="261.3333333333333" y2="222.0"/>
    <line stroke="black" x1="259.3333333333333" y1="222.0" x2="263.3333333333333" y2="222.0"/>
    <line stroke="black" x1="261.3333333333333" y1="223.0" x2="261.3333333333333" y2="224.0"/>
    <line stroke="black" x1="259.3333333333333" y1="224.0" x2="263.3333333333333" y2="224.0"/>
    <rect x="273.06666666666666" y="167.0" height="69.0" width="19.2" fill="#9999FF" style="stroke:black"/>
    <text transform="translate(279.6666666666667,241.0) rotate(90)" text-anchor="start">52 to 55</text>
    <circle cx="282.6666666666667" cy="219" r="2" fill="black"/>
    <line stroke="black" x1="282.6666666666667" y1="219.0" x2="282.6666666666667" y2="217.0"/>
    <line stroke="black" x1="280.6666666666667" y1="217.0" x2="284.6666666666667" y2="217.0"/>
    <line stroke="black" x1="282.6666666666667" y1="219.0" x2="282.6666666666667" y2="220.0"/>
    <line stroke="black" x1="280.6666666666667" y1="220.0" x2="284.6666666666667" y2="220.0"/>
    <rect x="294.4" y="201.0" height="35.0" width="19.2" fill="#9999FF" style="stroke:black"/>
    <text transform="translate(301.0,241.0) rotate(90)" text-anchor="start">56 to 59</text>
    <circle cx="304.0" cy="223" r="2" fill="black"/>
    <line stroke="black" x1="304.0" y1="223.0" x2="304.0" y2="221.0"/>
    <line stroke="black" x1="302.0" y1="221.0" x2="306.0" y2="221.0"/>
    <line stroke="black" x1="304.0" y1="223.0" x2="304.0" y2="224.0"/>
    <line stroke="black" x1="302.0" y1="224.0" x2="306.0" y2="224.0"/>
    <rect x="315.7333333333333" y="222.0" height="14.0" width="19.2" fill="#9999FF" style="stroke:black"/>
    <text transform="translate(322.3333333333333,241.0) rotate(90)" text-anchor="start">&gt;= 60</text>
    <circle cx="325.3333333333333" cy="220" r="2" fill="black"/>
    <line stroke="black" x1="325.3333333333333" y1="220.0" x2="325.3333333333333" y2="218.0"/>
    <line stroke="black" x1="323.3333333333333" y1="218.0" x2="327.3333333333333" y2="218.0"/>
    <line stroke="black" x1="325.3333333333333" y1="220.0" x2="325.3333333333333" y2="223.0"/>
    <line stroke="black" x1="323.3333333333333" y1="223.0" x2="327.3333333333333" y2="223.0"/>
    <line stroke-dasharray="10,5" stroke="black" x1="80.0" y1="223.0" x2="336.0" y2="223.0"/>
    <line stroke="black" x1="336.0" y1="20.0" x2="336.0" y2="236.0"/>
    <line stroke="black" x1="339.0" y1="236.0" x2="336.0" y2="236.0"/>
    <text transform="translate(343.0,236.0)" text-anchor="start"> 0.0</text>
    <line stroke="black" x1="339.0" y1="214.0" x2="336.0" y2="214.0"/>
    <text transform="translate(343.0,214.0)" text-anchor="start"> 0.1</text>
    <line stroke="black" x1="339.0" y1="193.0" x2="336.0" y2="193.0"/>
    <text transform="translate(343.0,193.0)" text-anchor="start"> 0.2</text>
    <line stroke="black" x1="339.0" y1="171.0" x2="336.0" y2="171.0"/>
    <text transform="translate(343.0,171.0)" text-anchor="start"> 0.3</text>
    <line stroke="black" x1="339.0" y1="150.0" x2="336.0" y2="150.0"/>
    <text transform="translate(343.0,150.0)" text-anchor="start"> 0.4</text>
    <line stroke="black" x1="339.0" y1="128.0" x2="336.0" y2="128.0"/>
    <text transform="translate(343.0,128.0)" text-anchor="start"> 0.5</text>
    <line stroke="black" x1="339.0" y1="106.0" x2="336.0" y2="106.0"/>
    <text transform="translate(343.0,106.0)" text-anchor="start"> 0.6</text>
    <line stroke="black" x1="339.0" y1="85.0" x2="336.0" y2="85.0"/>
    <text transform="translate(343.0,85.0)" text-anchor="start"> 0.7</text>
    <line stroke="black" x1="339.0" y1="63.0" x2="336.0" y2="63.0"/>
    <text transform="translate(343.0,63.0)" text-anchor="start"> 0.8</text>
    <line stroke="black" x1="339.0" y1="42.0" x2="336.0" y2="42.0"/>
    <text transform="translate(343.0,42.0)" text-anchor="start"> 0.9</text>
    <line stroke="black" x1="339.0" y1="20.0" x2="336.0" y2="20.0"/>
    <text transform="translate(343.0,20.0)" text-anchor="start"> 1.0</text>
    <text transform="translate(380.0,128.0) rotate(270)" text-anchor="middle">mean(RespondPress)</text>
  </g>
</svg>
