<?xml version="1.0" encoding="UTF-8"?>

<svg viewBox="0 0 400 301">
  <defs/>
  <g>
    <rect x="0.0" y="0.0" height="301.0" width="400.0" fill="white"/>
    <line stroke="black" x1="80.0" y1="216.0" x2="346.0" y2="216.0"/>
    <text transform="translate(208.0,15.0)" text-anchor="middle">ExpectedProfit</text>
    <line stroke="black" x1="80.0" y1="20.0" x2="80.0" y2="216.0"/>
    <line stroke="black" x1="77.0" y1="216.0" x2="80.0" y2="216.0"/>
    <text transform="translate(73.0,216.0)" text-anchor="end"> 0</text>
    <line stroke="black" x1="77.0" y1="202.0" x2="80.0" y2="202.0"/>
    <text transform="translate(73.0,202.0)" text-anchor="end"> 500</text>
    <line stroke="black" x1="77.0" y1="188.0" x2="80.0" y2="188.0"/>
    <text transform="translate(73.0,188.0)" text-anchor="end"> 1000</text>
    <line stroke="black" x1="77.0" y1="174.0" x2="80.0" y2="174.0"/>
    <text transform="translate(73.0,174.0)" text-anchor="end"> 1500</text>
    <line stroke="black" x1="77.0" y1="160.0" x2="80.0" y2="160.0"/>
    <text transform="translate(73.0,160.0)" text-anchor="end"> 2000</text>
    <line stroke="black" x1="77.0" y1="146.0" x2="80.0" y2="146.0"/>
    <text transform="translate(73.0,146.0)" text-anchor="end"> 2500</text>
    <line stroke="black" x1="77.0" y1="132.0" x2="80.0" y2="132.0"/>
    <text transform="translate(73.0,132.0)" text-anchor="end"> 3000</text>
    <line stroke="black" x1="77.0" y1="118.0" x2="80.0" y2="118.0"/>
    <text transform="translate(73.0,118.0)" text-anchor="end"> 3500</text>
    <line stroke="black" x1="77.0" y1="104.0" x2="80.0" y2="104.0"/>
    <text transform="translate(73.0,104.0)" text-anchor="end"> 4000</text>
    <line stroke="black" x1="77.0" y1="90.0" x2="80.0" y2="90.0"/>
    <text transform="translate(73.0,90.0)" text-anchor="end"> 4500</text>
    <line stroke="black" x1="77.0" y1="76.0" x2="80.0" y2="76.0"/>
    <text transform="translate(73.0,76.0)" text-anchor="end"> 5000</text>
    <line stroke="black" x1="77.0" y1="62.0" x2="80.0" y2="62.0"/>
    <text transform="translate(73.0,62.0)" text-anchor="end"> 5500</text>
    <line stroke="black" x1="77.0" y1="48.0" x2="80.0" y2="48.0"/>
    <text transform="translate(73.0,48.0)" text-anchor="end"> 6000</text>
    <line stroke="black" x1="77.0" y1="34.0" x2="80.0" y2="34.0"/>
    <text transform="translate(73.0,34.0)" text-anchor="end"> 6500</text>
    <line stroke="black" x1="77.0" y1="20.0" x2="80.0" y2="20.0"/>
    <text transform="translate(73.0,20.0)" text-anchor="end"> 7000</text>
    <text transform="translate(30.0,118.0) rotate(270)" text-anchor="middle">count()</text>
    <rect x="80.91428571428571" y="59.0" height="157.0" width="16.457142857142856" fill="#9999FF" style="stroke:black"/>
    <text transform="translate(86.14285714285714,221.0) rotate(90)" text-anchor="start">&lt; -0.8</text>
    <circle cx="89.14285714285714" cy="211" r="2" fill="black"/>
    <line stroke="black" x1="89.14285714285714" y1="211.0" x2="89.14285714285714" y2="211.0"/>
    <line stroke="black" x1="87.14285714285714" y1="211.0" x2="91.14285714285714" y2="211.0"/>
    <line stroke="black" x1="89.14285714285714" y1="211.0" x2="89.14285714285714" y2="211.0"/>
    <line stroke="black" x1="87.14285714285714" y1="211.0" x2="91.14285714285714" y2="211.0"/>
    <rect x="99.19999999999999" y="26.0" height="190.0" width="16.457142857142856" fill="#9999FF" style="stroke:black"/>
    <text transform="translate(104.42857142857142,221.0) rotate(90)" text-anchor="start">[-0.8, -0.6)</text>
    <circle cx="107.42857142857142" cy="208" r="2" fill="black"/>
    <line stroke="black" x1="107.42857142857142" y1="208.0" x2="107.42857142857142" y2="208.0"/>
    <line stroke="black" x1="105.42857142857142" y1="208.0" x2="109.42857142857142" y2="208.0"/>
    <line stroke="black" x1="107.42857142857142" y1="208.0" x2="107.42857142857142" y2="209.0"/>
    <line stroke="black" x1="105.42857142857142" y1="209.0" x2="109.42857142857142" y2="209.0"/>
    <rect x="117.48571428571428" y="37.0" height="179.0" width="16.457142857142856" fill="#9999FF" style="stroke:black"/>
    <text transform="translate(122.71428571428571,221.0) rotate(90)" text-anchor="start">[-0.6, -0.4)</text>
    <circle cx="125.71428571428571" cy="208" r="2" fill="black"/>
    <line stroke="black" x1="125.71428571428571" y1="208.0" x2="125.71428571428571" y2="207.0"/>
    <line stroke="black" x1="123.71428571428571" y1="207.0" x2="127.71428571428571" y2="207.0"/>
    <line stroke="black" x1="125.71428571428571" y1="208.0" x2="125.71428571428571" y2="208.0"/>
    <line stroke="black" x1="123.71428571428571" y1="208.0" x2="127.71428571428571" y2="208.0"/>
    <rect x="135.77142857142857" y="59.0" height="157.0" width="16.457142857142856" fill="#9999FF" style="stroke:black"/>
    <text transform="translate(141.0,221.0) rotate(90)" text-anchor="start">[-0.4, -0.2)</text>
    <circle cx="144.0" cy="206" r="2" fill="black"/>
    <line stroke="black" x1="144.0" y1="206.0" x2="144.0" y2="206.0"/>
    <line stroke="black" x1="142.0" y1="206.0" x2="146.0" y2="206.0"/>
    <line stroke="black" x1="144.0" y1="206.0" x2="144.0" y2="207.0"/>
    <line stroke="black" x1="142.0" y1="207.0" x2="146.0" y2="207.0"/>
    <rect x="154.05714285714285" y="84.0" height="132.0" width="16.457142857142856" fill="#9999FF" style="stroke:black"/>
    <text transform="translate(159.28571428571428,221.0) rotate(90)" text-anchor="start">[-0.2, 0)</text>
    <circle cx="162.28571428571428" cy="205" r="2" fill="black"/>
    <line stroke="black" x1="162.28571428571428" y1="205.0" x2="162.28571428571428" y2="204.0"/>
    <line stroke="black" x1="160.28571428571428" y1="204.0" x2="164.28571428571428" y2="204.0"/>
    <line stroke="black" x1="162.28571428571428" y1="205.0" x2="162.28571428571428" y2="206.0"/>
    <line stroke="black" x1="160.28571428571428" y1="206.0" x2="164.28571428571428" y2="206.0"/>
    <rect x="172.34285714285713" y="128.0" height="88.0" width="16.457142857142856" fill="#9999FF" style="stroke:black"/>
    <text transform="translate(177.57142857142856,221.0) rotate(90)" text-anchor="start">[0, 0.2)</text>
    <circle cx="180.57142857142856" cy="203" r="2" fill="black"/>
    <line stroke="black" x1="180.57142857142856" y1="203.0" x2="180.57142857142856" y2="202.0"/>
    <line stroke="black" x1="178.57142857142856" y1="202.0" x2="182.57142857142856" y2="202.0"/>
    <line stroke="black" x1="180.57142857142856" y1="203.0" x2="180.57142857142856" y2="204.0"/>
    <line stroke="black" x1="178.57142857142856" y1="204.0" x2="182.57142857142856" y2="204.0"/>
    <rect x="190.62857142857143" y="143.0" height="73.0" width="16.457142857142856" fill="#9999FF" style="stroke:black"/>
    <text transform="translate(195.85714285714286,221.0) rotate(90)" text-anchor="start">[0.2, 0.4)</text>
    <circle cx="198.85714285714286" cy="202" r="2" fill="black"/>
    <line stroke="black" x1="198.85714285714286" y1="202.0" x2="198.85714285714286" y2="201.0"/>
    <line stroke="black" x1="196.85714285714286" y1="201.0" x2="200.85714285714286" y2="201.0"/>
    <line stroke="black" x1="198.85714285714286" y1="202.0" x2="198.85714285714286" y2="203.0"/>
    <line stroke="black" x1="196.85714285714286" y1="203.0" x2="200.85714285714286" y2="203.0"/>
    <rect x="208.9142857142857" y="151.0" height="65.0" width="16.457142857142856" fill="#9999FF" style="stroke:black"/>
    <text transform="translate(214.14285714285714,221.0) rotate(90)" text-anchor="start">[0.4, 0.6)</text>
    <circle cx="217.14285714285714" cy="201" r="2" fill="black"/>
    <line stroke="black" x1="217.14285714285714" y1="201.0" x2="217.14285714285714" y2="200.0"/>
    <line stroke="black" x1="215.14285714285714" y1="200.0" x2="219.14285714285714" y2="200.0"/>
    <line stroke="black" x1="217.14285714285714" y1="201.0" x2="217.14285714285714" y2="202.0"/>
    <line stroke="black" x1="215.14285714285714" y1="202.0" x2="219.14285714285714" y2="202.0"/>
    <rect x="227.2" y="167.0" height="49.0" width="16.457142857142856" fill="#9999FF" style="stroke:black"/>
    <text transform="translate(232.42857142857142,221.0) rotate(90)" text-anchor="start">[0.6, 0.8)</text>
    <circle cx="235.42857142857142" cy="203" r="2" fill="black"/>
    <line stroke="black" x1="235.42857142857142" y1="203.0" x2="235.42857142857142" y2="202.0"/>
    <line stroke="black" x1="233.42857142857142" y1="202.0" x2="237.42857142857142" y2="202.0"/>
    <line stroke="black" x1="235.42857142857142" y1="203.0" x2="235.42857142857142" y2="204.0"/>
    <line stroke="black" x1="233.42857142857142" y1="204.0" x2="237.42857142857142" y2="204.0"/>
    <rect x="245.48571428571427" y="177.0" height="39.0" width="16.457142857142856" fill="#9999FF" style="stroke:black"/>
    <text transform="translate(250.7142857142857,221.0) rotate(90)" text-anchor="start">[0.8, 1)</text>
    <circle cx="253.7142857142857" cy="198" r="2" fill="black"/>
    <line stroke="black" x1="253.7142857142857" y1="198.0" x2="253.7142857142857" y2="196.0"/>
    <line stroke="black" x1="251.7142857142857" y1="196.0" x2="255.7142857142857" y2="196.0"/>
    <line stroke="black" x1="253.7142857142857" y1="198.0" x2="253.7142857142857" y2="199.0"/>
    <line stroke="black" x1="251.7142857142857" y1="199.0" x2="255.7142857142857" y2="199.0"/>
    <rect x="263.77142857142854" y="190.0" height="26.0" width="16.457142857142856" fill="#9999FF" style="stroke:black"/>
    <text transform="translate(269.0,221.0) rotate(90)" text-anchor="start">[1, 1.2)</text>
    <circle cx="272.0" cy="195" r="2" fill="black"/>
    <line stroke="black" x1="272.0" y1="195.0" x2="272.0" y2="193.0"/>
    <line stroke="black" x1="270.0" y1="193.0" x2="274.0" y2="193.0"/>
    <line stroke="black" x1="272.0" y1="195.0" x2="272.0" y2="197.0"/>
    <line stroke="black" x1="270.0" y1="197.0" x2="274.0" y2="197.0"/>
    <rect x="282.0571428571428" y="193.0" height="23.0" width="16.457142857142856" fill="#9999FF" style="stroke:black"/>
    <text transform="translate(287.2857142857143,221.0) rotate(90)" text-anchor="start">[1.2, 1.4)</text>
    <circle cx="290.2857142857143" cy="196" r="2" fill="black"/>
    <line stroke="black" x1="290.2857142857143" y1="196.0" x2="290.2857142857143" y2="194.0"/>
    <line stroke="black" x1="288.2857142857143" y1="194.0" x2="292.2857142857143" y2="194.0"/>
    <line stroke="black" x1="290.2857142857143" y1="196.0" x2="290.2857142857143" y2="198.0"/>
    <line stroke="black" x1="288.2857142857143" y1="198.0" x2="292.2857142857143" y2="198.0"/>
    <rect x="300.34285714285716" y="196.0" height="20.0" width="16.457142857142856" fill="#9999FF" style="stroke:black"/>
    <text transform="translate(305.5714285714286,221.0) rotate(90)" text-anchor="start">[1.4, 1.6)</text>
    <circle cx="308.5714285714286" cy="191" r="2" fill="black"/>
    <line stroke="black" x1="308.5714285714286" y1="191.0" x2="308.5714285714286" y2="189.0"/>
    <line stroke="black" x1="306.5714285714286" y1="189.0" x2="310.5714285714286" y2="189.0"/>
    <line stroke="black" x1="308.5714285714286" y1="191.0" x2="308.5714285714286" y2="194.0"/>
    <line stroke="black" x1="306.5714285714286" y1="194.0" x2="310.5714285714286" y2="194.0"/>
    <rect x="318.6285714285714" y="154.0" height="62.0" width="16.457142857142856" fill="#9999FF" style="stroke:black"/>
    <text transform="translate(323.85714285714283,221.0) rotate(90)" text-anchor="start">&gt;= 1.6</text>
    <circle cx="326.85714285714283" cy="189" r="2" fill="black"/>
    <line stroke="black" x1="326.85714285714283" y1="189.0" x2="326.85714285714283" y2="187.0"/>
    <line stroke="black" x1="324.85714285714283" y1="187.0" x2="328.85714285714283" y2="187.0"/>
    <line stroke="black" x1="326.85714285714283" y1="189.0" x2="326.85714285714283" y2="190.0"/>
    <line stroke="black" x1="324.85714285714283" y1="190.0" x2="328.85714285714283" y2="190.0"/>
    <line stroke-dasharray="10,5" stroke="black" x1="80.0" y1="205.0" x2="336.0" y2="205.0"/>
    <line stroke="black" x1="336.0" y1="20.0" x2="336.0" y2="216.0"/>
    <line stroke="black" x1="339.0" y1="216.0" x2="336.0" y2="216.0"/>
    <text transform="translate(343.0,216.0)" text-anchor="start"> 0.0</text>
    <line stroke="black" x1="339.0" y1="196.0" x2="336.0" y2="196.0"/>
    <text transform="translate(343.0,196.0)" text-anchor="start"> 0.1</text>
    <line stroke="black" x1="339.0" y1="177.0" x2="336.0" y2="177.0"/>
    <text transform="translate(343.0,177.0)" text-anchor="start"> 0.2</text>
    <line stroke="black" x1="339.0" y1="157.0" x2="336.0" y2="157.0"/>
    <text transform="translate(343.0,157.0)" text-anchor="start"> 0.3</text>
    <line stroke="black" x1="339.0" y1="138.0" x2="336.0" y2="138.0"/>
    <text transform="translate(343.0,138.0)" text-anchor="start"> 0.4</text>
    <line stroke="black" x1="339.0" y1="118.0" x2="336.0" y2="118.0"/>
    <text transform="translate(343.0,118.0)" text-anchor="start"> 0.5</text>
    <line stroke="black" x1="339.0" y1="98.0" x2="336.0" y2="98.0"/>
    <text transform="translate(343.0,98.0)" text-anchor="start"> 0.6</text>
    <line stroke="black" x1="339.0" y1="79.0" x2="336.0" y2="79.0"/>
    <text transform="translate(343.0,79.0)" text-anchor="start"> 0.7</text>
    <line stroke="black" x1="339.0" y1="59.0" x2="336.0" y2="59.0"/>
    <text transform="translate(343.0,59.0)" text-anchor="start"> 0.8</text>
    <line stroke="black" x1="339.0" y1="40.0" x2="336.0" y2="40.0"/>
    <text transform="translate(343.0,40.0)" text-anchor="start"> 0.9</text>
    <line stroke="black" x1="339.0" y1="20.0" x2="336.0" y2="20.0"/>
    <text transform="translate(343.0,20.0)" text-anchor="start"> 1.0</text>
    <text transform="translate(380.0,118.0) rotate(270)" text-anchor="middle">mean(RespondPress)</text>
  </g>
</svg>
