<?xml version="1.0" encoding="UTF-8"?>

<svg viewBox="0 0 400 301">
  <defs/>
  <g>
    <rect x="0.0" y="0.0" height="301.0" width="400.0" fill="white"/>
    <line stroke="black" x1="86.0" y1="216.0" x2="346.0" y2="216.0"/>
    <text transform="translate(211.0,15.0)" text-anchor="middle">HomeOwner</text>
    <line stroke="black" x1="86.0" y1="20.0" x2="86.0" y2="216.0"/>
    <line stroke="black" x1="83.0" y1="216.0" x2="86.0" y2="216.0"/>
    <text transform="translate(79.0,216.0)" text-anchor="end"> 0</text>
    <line stroke="black" x1="83.0" y1="199.66666666666666" x2="86.0" y2="199.66666666666666"/>
    <text transform="translate(79.0,199.66666666666666)" text-anchor="end"> 2000</text>
    <line stroke="black" x1="83.0" y1="183.33333333333334" x2="86.0" y2="183.33333333333334"/>
    <text transform="translate(79.0,183.33333333333334)" text-anchor="end"> 4000</text>
    <line stroke="black" x1="83.0" y1="167.0" x2="86.0" y2="167.0"/>
    <text transform="translate(79.0,167.0)" text-anchor="end"> 6000</text>
    <line stroke="black" x1="83.0" y1="150.66666666666669" x2="86.0" y2="150.66666666666669"/>
    <text transform="translate(79.0,150.66666666666669)" text-anchor="end"> 8000</text>
    <line stroke="black" x1="83.0" y1="134.33333333333334" x2="86.0" y2="134.33333333333334"/>
    <text transform="translate(79.0,134.33333333333334)" text-anchor="end"> 10000</text>
    <line stroke="black" x1="83.0" y1="118.00000000000001" x2="86.0" y2="118.00000000000001"/>
    <text transform="translate(79.0,118.00000000000001)" text-anchor="end"> 12000</text>
    <line stroke="black" x1="83.0" y1="101.66666666666667" x2="86.0" y2="101.66666666666667"/>
    <text transform="translate(79.0,101.66666666666667)" text-anchor="end"> 14000</text>
    <line stroke="black" x1="83.0" y1="85.33333333333334" x2="86.0" y2="85.33333333333334"/>
    <text transform="translate(79.0,85.33333333333334)" text-anchor="end"> 16000</text>
    <line stroke="black" x1="83.0" y1="69.00000000000003" x2="86.0" y2="69.00000000000003"/>
    <text transform="translate(79.0,69.00000000000003)" text-anchor="end"> 18000</text>
    <line stroke="black" x1="83.0" y1="52.666666666666686" x2="86.0" y2="52.666666666666686"/>
    <text transform="translate(79.0,52.666666666666686)" text-anchor="end"> 20000</text>
    <line stroke="black" x1="83.0" y1="36.33333333333334" x2="86.0" y2="36.33333333333334"/>
    <text transform="translate(79.0,36.33333333333334)" text-anchor="end"> 22000</text>
    <line stroke="black" x1="83.0" y1="20.00000000000003" x2="86.0" y2="20.00000000000003"/>
    <text transform="translate(79.0,20.00000000000003)" text-anchor="end"> 24000</text>
    <text transform="translate(30.0,118.0) rotate(270)" text-anchor="middle">count()</text>
    <rect x="89.125" y="33.0" height="183.0" width="56.25" fill="#9999FF" style="stroke:black"/>
    <text transform="translate(114.25,221.0) rotate(90)" text-anchor="start">rented</text>
    <circle cx="117.25" cy="204" r="2" fill="black"/>
    <line stroke="black" x1="117.25" y1="204.0" x2="117.25" y2="204.0"/>
    <line stroke="black" x1="115.25" y1="204.0" x2="119.25" y2="204.0"/>
    <line stroke="black" x1="117.25" y1="204.0" x2="117.25" y2="205.0"/>
    <line stroke="black" x1="115.25" y1="205.0" x2="119.25" y2="205.0"/>
    <rect x="151.625" y="123.0" height="93.0" width="56.25" fill="#9999FF" style="stroke:black"/>
    <text transform="translate(176.75,221.0) rotate(90)" text-anchor="start">owner</text>
    <circle cx="179.75" cy="204" r="2" fill="black"/>
    <line stroke="black" x1="179.75" y1="204.0" x2="179.75" y2="204.0"/>
    <line stroke="black" x1="177.75" y1="204.0" x2="181.75" y2="204.0"/>
    <line stroke="black" x1="179.75" y1="204.0" x2="179.75" y2="205.0"/>
    <line stroke="black" x1="177.75" y1="205.0" x2="181.75" y2="205.0"/>
    <rect x="214.125" y="171.0" height="45.0" width="56.25" fill="#9999FF" style="stroke:black"/>
    <text transform="translate(239.25,221.0) rotate(90)" text-anchor="start">with parents</text>
    <circle cx="242.25" cy="205" r="2" fill="black"/>
    <line stroke="black" x1="242.25" y1="205.0" x2="242.25" y2="204.0"/>
    <line stroke="black" x1="240.25" y1="204.0" x2="244.25" y2="204.0"/>
    <line stroke="black" x1="242.25" y1="205.0" x2="242.25" y2="206.0"/>
    <line stroke="black" x1="240.25" y1="206.0" x2="244.25" y2="206.0"/>
    <rect x="276.625" y="170.0" height="46.0" width="56.25" fill="#9999FF" style="stroke:black"/>
    <text transform="translate(301.75,221.0) rotate(90)" text-anchor="start">other</text>
    <circle cx="304.75" cy="205" r="2" fill="black"/>
    <line stroke="black" x1="304.75" y1="205.0" x2="304.75" y2="205.0"/>
    <line stroke="black" x1="302.75" y1="205.0" x2="306.75" y2="205.0"/>
    <line stroke="black" x1="304.75" y1="205.0" x2="304.75" y2="206.0"/>
    <line stroke="black" x1="302.75" y1="206.0" x2="306.75" y2="206.0"/>
    <line stroke-dasharray="10,5" stroke="black" x1="86.0" y1="205.0" x2="336.0" y2="205.0"/>
    <line stroke="black" x1="336.0" y1="20.0" x2="336.0" y2="216.0"/>
    <line stroke="black" x1="339.0" y1="216.0" x2="336.0" y2="216.0"/>
    <text transform="translate(343.0,216.0)" text-anchor="start"> 0.0</text>
    <line stroke="black" x1="339.0" y1="196.0" x2="336.0" y2="196.0"/>
    <text transform="translate(343.0,196.0)" text-anchor="start"> 0.1</text>
    <line stroke="black" x1="339.0" y1="177.0" x2="336.0" y2="177.0"/>
    <text transform="translate(343.0,177.0)" text-anchor="start"> 0.2</text>
    <line stroke="black" x1="339.0" y1="157.0" x2="336.0" y2="157.0"/>
    <text transform="translate(343.0,157.0)" text-anchor="start"> 0.3</text>
    <line stroke="black" x1="339.0" y1="138.0" x2="336.0" y2="138.0"/>
    <text transform="translate(343.0,138.0)" text-anchor="start"> 0.4</text>
    <line stroke="black" x1="339.0" y1="118.0" x2="336.0" y2="118.0"/>
    <text transform="translate(343.0,118.0)" text-anchor="start"> 0.5</text>
    <line stroke="black" x1="339.0" y1="98.0" x2="336.0" y2="98.0"/>
    <text transform="translate(343.0,98.0)" text-anchor="start"> 0.6</text>
    <line stroke="black" x1="339.0" y1="79.0" x2="336.0" y2="79.0"/>
    <text transform="translate(343.0,79.0)" text-anchor="start"> 0.7</text>
    <line stroke="black" x1="339.0" y1="59.0" x2="336.0" y2="59.0"/>
    <text transform="translate(343.0,59.0)" text-anchor="start"> 0.8</text>
    <line stroke="black" x1="339.0" y1="40.0" x2="336.0" y2="40.0"/>
    <text transform="translate(343.0,40.0)" text-anchor="start"> 0.9</text>
    <line stroke="black" x1="339.0" y1="20.0" x2="336.0" y2="20.0"/>
    <text transform="translate(343.0,20.0)" text-anchor="start"> 1.0</text>
    <text transform="translate(380.0,118.0) rotate(270)" text-anchor="middle">mean(RespondPress)</text>
  </g>
</svg>
