<?xml version="1.0" encoding="UTF-8"?>

<svg viewBox="0 0 400 301">
  <defs/>
  <g>
    <rect x="0.0" y="0.0" height="301.0" width="400.0" fill="white"/>
    <line stroke="black" x1="86.0" y1="206.0" x2="346.0" y2="206.0"/>
    <text transform="translate(211.0,15.0)" text-anchor="middle">Income</text>
    <line stroke="black" x1="86.0" y1="20.0" x2="86.0" y2="206.0"/>
    <line stroke="black" x1="83.0" y1="206.0" x2="86.0" y2="206.0"/>
    <text transform="translate(79.0,206.0)" text-anchor="end"> 0</text>
    <line stroke="black" x1="83.0" y1="190.5" x2="86.0" y2="190.5"/>
    <text transform="translate(79.0,190.5)" text-anchor="end"> 1000</text>
    <line stroke="black" x1="83.0" y1="175.0" x2="86.0" y2="175.0"/>
    <text transform="translate(79.0,175.0)" text-anchor="end"> 2000</text>
    <line stroke="black" x1="83.0" y1="159.5" x2="86.0" y2="159.5"/>
    <text transform="translate(79.0,159.5)" text-anchor="end"> 3000</text>
    <line stroke="black" x1="83.0" y1="144.0" x2="86.0" y2="144.0"/>
    <text transform="translate(79.0,144.0)" text-anchor="end"> 4000</text>
    <line stroke="black" x1="83.0" y1="128.5" x2="86.0" y2="128.5"/>
    <text transform="translate(79.0,128.5)" text-anchor="end"> 5000</text>
    <line stroke="black" x1="83.0" y1="113.0" x2="86.0" y2="113.0"/>
    <text transform="translate(79.0,113.0)" text-anchor="end"> 6000</text>
    <line stroke="black" x1="83.0" y1="97.5" x2="86.0" y2="97.5"/>
    <text transform="translate(79.0,97.5)" text-anchor="end"> 7000</text>
    <line stroke="black" x1="83.0" y1="82.0" x2="86.0" y2="82.0"/>
    <text transform="translate(79.0,82.0)" text-anchor="end"> 8000</text>
    <line stroke="black" x1="83.0" y1="66.5" x2="86.0" y2="66.5"/>
    <text transform="translate(79.0,66.5)" text-anchor="end"> 9000</text>
    <line stroke="black" x1="83.0" y1="51.0" x2="86.0" y2="51.0"/>
    <text transform="translate(79.0,51.0)" text-anchor="end"> 10000</text>
    <line stroke="black" x1="83.0" y1="35.5" x2="86.0" y2="35.5"/>
    <text transform="translate(79.0,35.5)" text-anchor="end"> 11000</text>
    <line stroke="black" x1="83.0" y1="20.0" x2="86.0" y2="20.0"/>
    <text transform="translate(79.0,20.0)" text-anchor="end"> 12000</text>
    <text transform="translate(30.0,113.0) rotate(270)" text-anchor="middle">count()</text>
    <rect x="87.13636363636364" y="202.0" height="4.0" width="20.454545454545453" fill="#9999FF" style="stroke:black"/>
    <text transform="translate(94.36363636363636,211.0) rotate(90)" text-anchor="start">&lt;= -1</text>
    <circle cx="97.36363636363636" cy="203" r="2" fill="black"/>
    <line stroke="black" x1="97.36363636363636" y1="203.0" x2="97.36363636363636" y2="201.0"/>
    <line stroke="black" x1="95.36363636363636" y1="201.0" x2="99.36363636363636" y2="201.0"/>
    <line stroke="black" x1="97.36363636363636" y1="203.0" x2="97.36363636363636" y2="204.0"/>
    <line stroke="black" x1="95.36363636363636" y1="204.0" x2="99.36363636363636" y2="204.0"/>
    <rect x="109.86363636363636" y="188.0" height="18.0" width="20.454545454545453" fill="#9999FF" style="stroke:black"/>
    <text transform="translate(117.09090909090908,211.0) rotate(90)" text-anchor="start">0 to 7271</text>
    <circle cx="120.09090909090908" cy="202" r="2" fill="black"/>
    <line stroke="black" x1="120.09090909090908" y1="202.0" x2="120.09090909090908" y2="201.0"/>
    <line stroke="black" x1="118.09090909090908" y1="201.0" x2="122.09090909090908" y2="201.0"/>
    <line stroke="black" x1="120.09090909090908" y1="202.0" x2="120.09090909090908" y2="203.0"/>
    <line stroke="black" x1="118.09090909090908" y1="203.0" x2="122.09090909090908" y2="203.0"/>
    <rect x="132.59090909090907" y="146.0" height="60.0" width="20.454545454545453" fill="#9999FF" style="stroke:black"/>
    <text transform="translate(139.8181818181818,211.0) rotate(90)" text-anchor="start">7272 to 14543</text>
    <circle cx="142.8181818181818" cy="200" r="2" fill="black"/>
    <line stroke="black" x1="142.8181818181818" y1="200.0" x2="142.8181818181818" y2="200.0"/>
    <line stroke="black" x1="140.8181818181818" y1="200.0" x2="144.8181818181818" y2="200.0"/>
    <line stroke="black" x1="142.8181818181818" y1="200.0" x2="142.8181818181818" y2="201.0"/>
    <line stroke="black" x1="140.8181818181818" y1="201.0" x2="144.8181818181818" y2="201.0"/>
    <rect x="155.3181818181818" y="78.0" height="128.0" width="20.454545454545453" fill="#9999FF" style="stroke:black"/>
    <text transform="translate(162.54545454545456,211.0) rotate(90)" text-anchor="start">14544 to 21815</text>
    <circle cx="165.54545454545456" cy="199" r="2" fill="black"/>
    <line stroke="black" x1="165.54545454545456" y1="199.0" x2="165.54545454545456" y2="199.0"/>
    <line stroke="black" x1="163.54545454545456" y1="199.0" x2="167.54545454545456" y2="199.0"/>
    <line stroke="black" x1="165.54545454545456" y1="199.0" x2="165.54545454545456" y2="200.0"/>
    <line stroke="black" x1="163.54545454545456" y1="200.0" x2="167.54545454545456" y2="200.0"/>
    <rect x="178.04545454545453" y="27.0" height="179.0" width="20.454545454545453" fill="#9999FF" style="stroke:black"/>
    <text transform="translate(185.27272727272728,211.0) rotate(90)" text-anchor="start">21816 to 29087</text>
    <circle cx="188.27272727272728" cy="198" r="2" fill="black"/>
    <line stroke="black" x1="188.27272727272728" y1="198.0" x2="188.27272727272728" y2="197.0"/>
    <line stroke="black" x1="186.27272727272728" y1="197.0" x2="190.27272727272728" y2="197.0"/>
    <line stroke="black" x1="188.27272727272728" y1="198.0" x2="188.27272727272728" y2="198.0"/>
    <line stroke="black" x1="186.27272727272728" y1="198.0" x2="190.27272727272728" y2="198.0"/>
    <rect x="200.77272727272725" y="44.0" height="162.0" width="20.454545454545453" fill="#9999FF" style="stroke:black"/>
    <text transform="translate(208.0,211.0) rotate(90)" text-anchor="start">29088 to 36359</text>
    <circle cx="211.0" cy="194" r="2" fill="black"/>
    <line stroke="black" x1="211.0" y1="194.0" x2="211.0" y2="193.0"/>
    <line stroke="black" x1="209.0" y1="193.0" x2="213.0" y2="193.0"/>
    <line stroke="black" x1="211.0" y1="194.0" x2="211.0" y2="194.0"/>
    <line stroke="black" x1="209.0" y1="194.0" x2="213.0" y2="194.0"/>
    <rect x="223.5" y="111.0" height="95.0" width="20.454545454545453" fill="#9999FF" style="stroke:black"/>
    <text transform="translate(230.72727272727275,211.0) rotate(90)" text-anchor="start">36360 to 43631</text>
    <circle cx="233.72727272727275" cy="188" r="2" fill="black"/>
    <line stroke="black" x1="233.72727272727275" y1="188.0" x2="233.72727272727275" y2="188.0"/>
    <line stroke="black" x1="231.72727272727275" y1="188.0" x2="235.72727272727275" y2="188.0"/>
    <line stroke="black" x1="233.72727272727275" y1="188.0" x2="233.72727272727275" y2="189.0"/>
    <line stroke="black" x1="231.72727272727275" y1="189.0" x2="235.72727272727275" y2="189.0"/>
    <rect x="246.22727272727272" y="166.0" height="40.0" width="20.454545454545453" fill="#9999FF" style="stroke:black"/>
    <text transform="translate(253.45454545454544,211.0) rotate(90)" text-anchor="start">43632 to 50903</text>
    <circle cx="256.45454545454544" cy="185" r="2" fill="black"/>
    <line stroke="black" x1="256.45454545454544" y1="185.0" x2="256.45454545454544" y2="184.0"/>
    <line stroke="black" x1="254.45454545454544" y1="184.0" x2="258.45454545454544" y2="184.0"/>
    <line stroke="black" x1="256.45454545454544" y1="185.0" x2="256.45454545454544" y2="186.0"/>
    <line stroke="black" x1="254.45454545454544" y1="186.0" x2="258.45454545454544" y2="186.0"/>
    <rect x="268.95454545454544" y="196.0" height="10.0" width="20.454545454545453" fill="#9999FF" style="stroke:black"/>
    <text transform="translate(276.1818181818182,211.0) rotate(90)" text-anchor="start">50904 to 58175</text>
    <circle cx="279.1818181818182" cy="182" r="2" fill="black"/>
    <line stroke="black" x1="279.1818181818182" y1="182.0" x2="279.1818181818182" y2="180.0"/>
    <line stroke="black" x1="277.1818181818182" y1="180.0" x2="281.1818181818182" y2="180.0"/>
    <line stroke="black" x1="279.1818181818182" y1="182.0" x2="279.1818181818182" y2="185.0"/>
    <line stroke="black" x1="277.1818181818182" y1="185.0" x2="281.1818181818182" y2="185.0"/>
    <rect x="291.68181818181813" y="204.0" height="2.0" width="20.454545454545453" fill="#9999FF" style="stroke:black"/>
    <text transform="translate(298.9090909090909,211.0) rotate(90)" text-anchor="start">58176 to 65447</text>
    <circle cx="301.9090909090909" cy="181" r="2" fill="black"/>
    <line stroke="black" x1="301.9090909090909" y1="181.0" x2="301.9090909090909" y2="176.0"/>
    <line stroke="black" x1="299.9090909090909" y1="176.0" x2="303.9090909090909" y2="176.0"/>
    <line stroke="black" x1="301.9090909090909" y1="181.0" x2="301.9090909090909" y2="187.0"/>
    <line stroke="black" x1="299.9090909090909" y1="187.0" x2="303.9090909090909" y2="187.0"/>
    <rect x="314.4090909090909" y="206.0" height="0.0" width="20.454545454545453" fill="#9999FF" style="stroke:black"/>
    <text transform="translate(321.6363636363636,211.0) rotate(90)" text-anchor="start">&gt;= 65448</text>
    <circle cx="324.6363636363636" cy="153" r="2" fill="black"/>
    <line stroke="black" x1="324.6363636363636" y1="153.0" x2="324.6363636363636" y2="134.0"/>
    <line stroke="black" x1="322.6363636363636" y1="134.0" x2="326.6363636363636" y2="134.0"/>
    <line stroke="black" x1="324.6363636363636" y1="153.0" x2="324.6363636363636" y2="172.0"/>
    <line stroke="black" x1="322.6363636363636" y1="172.0" x2="326.6363636363636" y2="172.0"/>
    <line stroke-dasharray="10,5" stroke="black" x1="86.0" y1="195.0" x2="336.0" y2="195.0"/>
    <line stroke="black" x1="336.0" y1="20.0" x2="336.0" y2="206.0"/>
    <line stroke="black" x1="339.0" y1="206.0" x2="336.0" y2="206.0"/>
    <text transform="translate(343.0,206.0)" text-anchor="start"> 0.0</text>
    <line stroke="black" x1="339.0" y1="187.0" x2="336.0" y2="187.0"/>
    <text transform="translate(343.0,187.0)" text-anchor="start"> 0.1</text>
    <line stroke="black" x1="339.0" y1="169.0" x2="336.0" y2="169.0"/>
    <text transform="translate(343.0,169.0)" text-anchor="start"> 0.2</text>
    <line stroke="black" x1="339.0" y1="150.0" x2="336.0" y2="150.0"/>
    <text transform="translate(343.0,150.0)" text-anchor="start"> 0.3</text>
    <line stroke="black" x1="339.0" y1="132.0" x2="336.0" y2="132.0"/>
    <text transform="translate(343.0,132.0)" text-anchor="start"> 0.4</text>
    <line stroke="black" x1="339.0" y1="113.0" x2="336.0" y2="113.0"/>
    <text transform="translate(343.0,113.0)" text-anchor="start"> 0.5</text>
    <line stroke="black" x1="339.0" y1="94.0" x2="336.0" y2="94.0"/>
    <text transform="translate(343.0,94.0)" text-anchor="start"> 0.6</text>
    <line stroke="black" x1="339.0" y1="76.0" x2="336.0" y2="76.0"/>
    <text transform="translate(343.0,76.0)" text-anchor="start"> 0.7</text>
    <line stroke="black" x1="339.0" y1="57.0" x2="336.0" y2="57.0"/>
    <text transform="translate(343.0,57.0)" text-anchor="start"> 0.8</text>
    <line stroke="black" x1="339.0" y1="39.0" x2="336.0" y2="39.0"/>
    <text transform="translate(343.0,39.0)" text-anchor="start"> 0.9</text>
    <line stroke="black" x1="339.0" y1="20.0" x2="336.0" y2="20.0"/>
    <text transform="translate(343.0,20.0)" text-anchor="start"> 1.0</text>
    <text transform="translate(380.0,113.0) rotate(270)" text-anchor="middle">mean(RespondPress)</text>
  </g>
</svg>
