<?xml version="1.0" encoding="UTF-8"?>

<svg viewBox="0 0 400 301">
  <defs/>
  <g>
    <rect x="0.0" y="0.0" height="301.0" width="400.0" fill="white"/>
    <line stroke="black" x1="86.0" y1="206.0" x2="346.0" y2="206.0"/>
    <text transform="translate(211.0,15.0)" text-anchor="middle">LoanAmount</text>
    <line stroke="black" x1="86.0" y1="20.0" x2="86.0" y2="206.0"/>
    <line stroke="black" x1="83.0" y1="206.0" x2="86.0" y2="206.0"/>
    <text transform="translate(79.0,206.0)" text-anchor="end"> 0</text>
    <line stroke="black" x1="83.0" y1="191.69230769230768" x2="86.0" y2="191.69230769230768"/>
    <text transform="translate(79.0,191.69230769230768)" text-anchor="end"> 1000</text>
    <line stroke="black" x1="83.0" y1="177.3846153846154" x2="86.0" y2="177.3846153846154"/>
    <text transform="translate(79.0,177.3846153846154)" text-anchor="end"> 2000</text>
    <line stroke="black" x1="83.0" y1="163.0769230769231" x2="86.0" y2="163.0769230769231"/>
    <text transform="translate(79.0,163.0769230769231)" text-anchor="end"> 3000</text>
    <line stroke="black" x1="83.0" y1="148.76923076923077" x2="86.0" y2="148.76923076923077"/>
    <text transform="translate(79.0,148.76923076923077)" text-anchor="end"> 4000</text>
    <line stroke="black" x1="83.0" y1="134.46153846153845" x2="86.0" y2="134.46153846153845"/>
    <text transform="translate(79.0,134.46153846153845)" text-anchor="end"> 5000</text>
    <line stroke="black" x1="83.0" y1="120.15384615384616" x2="86.0" y2="120.15384615384616"/>
    <text transform="translate(79.0,120.15384615384616)" text-anchor="end"> 6000</text>
    <line stroke="black" x1="83.0" y1="105.84615384615384" x2="86.0" y2="105.84615384615384"/>
    <text transform="translate(79.0,105.84615384615384)" text-anchor="end"> 7000</text>
    <line stroke="black" x1="83.0" y1="91.53846153846153" x2="86.0" y2="91.53846153846153"/>
    <text transform="translate(79.0,91.53846153846153)" text-anchor="end"> 8000</text>
    <line stroke="black" x1="83.0" y1="77.23076923076923" x2="86.0" y2="77.23076923076923"/>
    <text transform="translate(79.0,77.23076923076923)" text-anchor="end"> 9000</text>
    <line stroke="black" x1="83.0" y1="62.923076923076934" x2="86.0" y2="62.923076923076934"/>
    <text transform="translate(79.0,62.923076923076934)" text-anchor="end"> 10000</text>
    <line stroke="black" x1="83.0" y1="48.61538461538461" x2="86.0" y2="48.61538461538461"/>
    <text transform="translate(79.0,48.61538461538461)" text-anchor="end"> 11000</text>
    <line stroke="black" x1="83.0" y1="34.30769230769232" x2="86.0" y2="34.30769230769232"/>
    <text transform="translate(79.0,34.30769230769232)" text-anchor="end"> 12000</text>
    <line stroke="black" x1="83.0" y1="20.0" x2="86.0" y2="20.0"/>
    <text transform="translate(79.0,20.0)" text-anchor="end"> 13000</text>
    <text transform="translate(30.0,113.0) rotate(270)" text-anchor="middle">count()</text>
    <rect x="87.04166666666667" y="204.0" height="2.0" width="18.75" fill="#9999FF" style="stroke:black"/>
    <text transform="translate(93.41666666666667,211.0) rotate(90)" text-anchor="start">&lt;= 0</text>
    <circle cx="96.41666666666667" cy="197" r="2" fill="black"/>
    <line stroke="black" x1="96.41666666666667" y1="197.0" x2="96.41666666666667" y2="194.0"/>
    <line stroke="black" x1="94.41666666666667" y1="194.0" x2="98.41666666666667" y2="194.0"/>
    <line stroke="black" x1="96.41666666666667" y1="197.0" x2="96.41666666666667" y2="201.0"/>
    <line stroke="black" x1="94.41666666666667" y1="201.0" x2="98.41666666666667" y2="201.0"/>
    <rect x="107.875" y="203.0" height="3.0" width="18.75" fill="#9999FF" style="stroke:black"/>
    <text transform="translate(114.25,211.0) rotate(90)" text-anchor="start">[0, 4000)</text>
    <circle cx="117.25" cy="189" r="2" fill="black"/>
    <line stroke="black" x1="117.25" y1="189.0" x2="117.25" y2="185.0"/>
    <line stroke="black" x1="115.25" y1="185.0" x2="119.25" y2="185.0"/>
    <line stroke="black" x1="117.25" y1="189.0" x2="117.25" y2="192.0"/>
    <line stroke="black" x1="115.25" y1="192.0" x2="119.25" y2="192.0"/>
    <rect x="128.70833333333331" y="96.0" height="110.0" width="18.75" fill="#9999FF" style="stroke:black"/>
    <text transform="translate(135.08333333333331,211.0) rotate(90)" text-anchor="start">[4000, 8000)</text>
    <circle cx="138.08333333333331" cy="195" r="2" fill="black"/>
    <line stroke="black" x1="138.08333333333331" y1="195.0" x2="138.08333333333331" y2="194.0"/>
    <line stroke="black" x1="136.08333333333331" y1="194.0" x2="140.08333333333331" y2="194.0"/>
    <line stroke="black" x1="138.08333333333331" y1="195.0" x2="138.08333333333331" y2="195.0"/>
    <line stroke="black" x1="136.08333333333331" y1="195.0" x2="140.08333333333331" y2="195.0"/>
    <rect x="149.54166666666666" y="22.0" height="184.0" width="18.75" fill="#9999FF" style="stroke:black"/>
    <text transform="translate(155.91666666666666,211.0) rotate(90)" text-anchor="start">[8000, 12000)</text>
    <circle cx="158.91666666666666" cy="195" r="2" fill="black"/>
    <line stroke="black" x1="158.91666666666666" y1="195.0" x2="158.91666666666666" y2="195.0"/>
    <line stroke="black" x1="156.91666666666666" y1="195.0" x2="160.91666666666666" y2="195.0"/>
    <line stroke="black" x1="158.91666666666666" y1="195.0" x2="158.91666666666666" y2="195.0"/>
    <line stroke="black" x1="156.91666666666666" y1="195.0" x2="160.91666666666666" y2="195.0"/>
    <rect x="170.37499999999997" y="84.0" height="122.0" width="18.75" fill="#9999FF" style="stroke:black"/>
    <text transform="translate(176.74999999999997,211.0) rotate(90)" text-anchor="start">[12000, 16000)</text>
    <circle cx="179.74999999999997" cy="195" r="2" fill="black"/>
    <line stroke="black" x1="179.74999999999997" y1="195.0" x2="179.74999999999997" y2="195.0"/>
    <line stroke="black" x1="177.74999999999997" y1="195.0" x2="181.74999999999997" y2="195.0"/>
    <line stroke="black" x1="179.74999999999997" y1="195.0" x2="179.74999999999997" y2="196.0"/>
    <line stroke="black" x1="177.74999999999997" y1="196.0" x2="181.74999999999997" y2="196.0"/>
    <rect x="191.20833333333331" y="130.0" height="76.0" width="18.75" fill="#9999FF" style="stroke:black"/>
    <text transform="translate(197.58333333333331,211.0) rotate(90)" text-anchor="start">[16000, 20000)</text>
    <circle cx="200.58333333333331" cy="195" r="2" fill="black"/>
    <line stroke="black" x1="200.58333333333331" y1="195.0" x2="200.58333333333331" y2="195.0"/>
    <line stroke="black" x1="198.58333333333331" y1="195.0" x2="202.58333333333331" y2="195.0"/>
    <line stroke="black" x1="200.58333333333331" y1="195.0" x2="200.58333333333331" y2="196.0"/>
    <line stroke="black" x1="198.58333333333331" y1="196.0" x2="202.58333333333331" y2="196.0"/>
    <rect x="212.04166666666666" y="169.0" height="37.0" width="18.75" fill="#9999FF" style="stroke:black"/>
    <text transform="translate(218.41666666666666,211.0) rotate(90)" text-anchor="start">[20000, 24000)</text>
    <circle cx="221.41666666666666" cy="196" r="2" fill="black"/>
    <line stroke="black" x1="221.41666666666666" y1="196.0" x2="221.41666666666666" y2="196.0"/>
    <line stroke="black" x1="219.41666666666666" y1="196.0" x2="223.41666666666666" y2="196.0"/>
    <line stroke="black" x1="221.41666666666666" y1="196.0" x2="221.41666666666666" y2="197.0"/>
    <line stroke="black" x1="219.41666666666666" y1="197.0" x2="223.41666666666666" y2="197.0"/>
    <rect x="232.87499999999997" y="175.0" height="31.0" width="18.75" fill="#9999FF" style="stroke:black"/>
    <text transform="translate(239.24999999999997,211.0) rotate(90)" text-anchor="start">[24000, 28000)</text>
    <circle cx="242.24999999999997" cy="193" r="2" fill="black"/>
    <line stroke="black" x1="242.24999999999997" y1="193.0" x2="242.24999999999997" y2="192.0"/>
    <line stroke="black" x1="240.24999999999997" y1="192.0" x2="244.24999999999997" y2="192.0"/>
    <line stroke="black" x1="242.24999999999997" y1="193.0" x2="242.24999999999997" y2="194.0"/>
    <line stroke="black" x1="240.24999999999997" y1="194.0" x2="244.24999999999997" y2="194.0"/>
    <rect x="253.70833333333331" y="186.0" height="20.0" width="18.75" fill="#9999FF" style="stroke:black"/>
    <text transform="translate(260.0833333333333,211.0) rotate(90)" text-anchor="start">[28000, 32000)</text>
    <circle cx="263.0833333333333" cy="197" r="2" fill="black"/>
    <line stroke="black" x1="263.0833333333333" y1="197.0" x2="263.0833333333333" y2="196.0"/>
    <line stroke="black" x1="261.0833333333333" y1="196.0" x2="265.0833333333333" y2="196.0"/>
    <line stroke="black" x1="263.0833333333333" y1="197.0" x2="263.0833333333333" y2="198.0"/>
    <line stroke="black" x1="261.0833333333333" y1="198.0" x2="265.0833333333333" y2="198.0"/>
    <rect x="274.5416666666667" y="191.0" height="15.0" width="18.75" fill="#9999FF" style="stroke:black"/>
    <text transform="translate(280.9166666666667,211.0) rotate(90)" text-anchor="start">[32000, 36000)</text>
    <circle cx="283.9166666666667" cy="196" r="2" fill="black"/>
    <line stroke="black" x1="283.9166666666667" y1="196.0" x2="283.9166666666667" y2="195.0"/>
    <line stroke="black" x1="281.9166666666667" y1="195.0" x2="285.9166666666667" y2="195.0"/>
    <line stroke="black" x1="283.9166666666667" y1="196.0" x2="283.9166666666667" y2="197.0"/>
    <line stroke="black" x1="281.9166666666667" y1="197.0" x2="285.9166666666667" y2="197.0"/>
    <rect x="295.375" y="196.0" height="10.0" width="18.75" fill="#9999FF" style="stroke:black"/>
    <text transform="translate(301.75,211.0) rotate(90)" text-anchor="start">[36000, 40000)</text>
    <circle cx="304.75" cy="193" r="2" fill="black"/>
    <line stroke="black" x1="304.75" y1="193.0" x2="304.75" y2="192.0"/>
    <line stroke="black" x1="302.75" y1="192.0" x2="306.75" y2="192.0"/>
    <line stroke="black" x1="304.75" y1="193.0" x2="304.75" y2="195.0"/>
    <line stroke="black" x1="302.75" y1="195.0" x2="306.75" y2="195.0"/>
    <rect x="316.2083333333333" y="172.0" height="34.0" width="18.75" fill="#9999FF" style="stroke:black"/>
    <text transform="translate(322.5833333333333,211.0) rotate(90)" text-anchor="start">&gt;= 40000</text>
    <circle cx="325.5833333333333" cy="196" r="2" fill="black"/>
    <line stroke="black" x1="325.5833333333333" y1="196.0" x2="325.5833333333333" y2="195.0"/>
    <line stroke="black" x1="323.5833333333333" y1="195.0" x2="327.5833333333333" y2="195.0"/>
    <line stroke="black" x1="325.5833333333333" y1="196.0" x2="325.5833333333333" y2="197.0"/>
    <line stroke="black" x1="323.5833333333333" y1="197.0" x2="327.5833333333333" y2="197.0"/>
    <line stroke-dasharray="10,5" stroke="black" x1="86.0" y1="195.0" x2="336.0" y2="195.0"/>
    <line stroke="black" x1="336.0" y1="20.0" x2="336.0" y2="206.0"/>
    <line stroke="black" x1="339.0" y1="206.0" x2="336.0" y2="206.0"/>
    <text transform="translate(343.0,206.0)" text-anchor="start"> 0.0</text>
    <line stroke="black" x1="339.0" y1="187.0" x2="336.0" y2="187.0"/>
    <text transform="translate(343.0,187.0)" text-anchor="start"> 0.1</text>
    <line stroke="black" x1="339.0" y1="169.0" x2="336.0" y2="169.0"/>
    <text transform="translate(343.0,169.0)" text-anchor="start"> 0.2</text>
    <line stroke="black" x1="339.0" y1="150.0" x2="336.0" y2="150.0"/>
    <text transform="translate(343.0,150.0)" text-anchor="start"> 0.3</text>
    <line stroke="black" x1="339.0" y1="132.0" x2="336.0" y2="132.0"/>
    <text transform="translate(343.0,132.0)" text-anchor="start"> 0.4</text>
    <line stroke="black" x1="339.0" y1="113.0" x2="336.0" y2="113.0"/>
    <text transform="translate(343.0,113.0)" text-anchor="start"> 0.5</text>
    <line stroke="black" x1="339.0" y1="94.0" x2="336.0" y2="94.0"/>
    <text transform="translate(343.0,94.0)" text-anchor="start"> 0.6</text>
    <line stroke="black" x1="339.0" y1="76.0" x2="336.0" y2="76.0"/>
    <text transform="translate(343.0,76.0)" text-anchor="start"> 0.7</text>
    <line stroke="black" x1="339.0" y1="57.0" x2="336.0" y2="57.0"/>
    <text transform="translate(343.0,57.0)" text-anchor="start"> 0.8</text>
    <line stroke="black" x1="339.0" y1="39.0" x2="336.0" y2="39.0"/>
    <text transform="translate(343.0,39.0)" text-anchor="start"> 0.9</text>
    <line stroke="black" x1="339.0" y1="20.0" x2="336.0" y2="20.0"/>
    <text transform="translate(343.0,20.0)" text-anchor="start"> 1.0</text>
    <text transform="translate(380.0,113.0) rotate(270)" text-anchor="middle">mean(RespondPress)</text>
  </g>
</svg>
