<?xml version="1.0" encoding="UTF-8"?>

<svg viewBox="0 0 400 301">
  <defs/>
  <g>
    <rect x="0.0" y="0.0" height="301.0" width="400.0" fill="white"/>
    <line stroke="black" x1="86.0" y1="226.0" x2="346.0" y2="226.0"/>
    <text transform="translate(211.0,15.0)" text-anchor="middle">MailThese</text>
    <line stroke="black" x1="86.0" y1="20.0" x2="86.0" y2="226.0"/>
    <line stroke="black" x1="83.0" y1="226.0" x2="86.0" y2="226.0"/>
    <text transform="translate(79.0,226.0)" text-anchor="end"> 0</text>
    <line stroke="black" x1="83.0" y1="207.27272727272728" x2="86.0" y2="207.27272727272728"/>
    <text transform="translate(79.0,207.27272727272728)" text-anchor="end"> 2000</text>
    <line stroke="black" x1="83.0" y1="188.54545454545456" x2="86.0" y2="188.54545454545456"/>
    <text transform="translate(79.0,188.54545454545456)" text-anchor="end"> 4000</text>
    <line stroke="black" x1="83.0" y1="169.8181818181818" x2="86.0" y2="169.8181818181818"/>
    <text transform="translate(79.0,169.8181818181818)" text-anchor="end"> 6000</text>
    <line stroke="black" x1="83.0" y1="151.0909090909091" x2="86.0" y2="151.0909090909091"/>
    <text transform="translate(79.0,151.0909090909091)" text-anchor="end"> 8000</text>
    <line stroke="black" x1="83.0" y1="132.36363636363637" x2="86.0" y2="132.36363636363637"/>
    <text transform="translate(79.0,132.36363636363637)" text-anchor="end"> 10000</text>
    <line stroke="black" x1="83.0" y1="113.63636363636363" x2="86.0" y2="113.63636363636363"/>
    <text transform="translate(79.0,113.63636363636363)" text-anchor="end"> 12000</text>
    <line stroke="black" x1="83.0" y1="94.9090909090909" x2="86.0" y2="94.9090909090909"/>
    <text transform="translate(79.0,94.9090909090909)" text-anchor="end"> 14000</text>
    <line stroke="black" x1="83.0" y1="76.18181818181819" x2="86.0" y2="76.18181818181819"/>
    <text transform="translate(79.0,76.18181818181819)" text-anchor="end"> 16000</text>
    <line stroke="black" x1="83.0" y1="57.45454545454544" x2="86.0" y2="57.45454545454544"/>
    <text transform="translate(79.0,57.45454545454544)" text-anchor="end"> 18000</text>
    <line stroke="black" x1="83.0" y1="38.72727272727272" x2="86.0" y2="38.72727272727272"/>
    <text transform="translate(79.0,38.72727272727272)" text-anchor="end"> 20000</text>
    <line stroke="black" x1="83.0" y1="20.0" x2="86.0" y2="20.0"/>
    <text transform="translate(79.0,20.0)" text-anchor="end"> 22000</text>
    <text transform="translate(30.0,123.0) rotate(270)" text-anchor="middle">count()</text>
    <rect x="87.38888888888889" y="36.0" height="190.0" width="25.0" fill="#9999FF" style="stroke:black"/>
    <text transform="translate(96.88888888888889,231.0) rotate(90)" text-anchor="start">&lt;= 20</text>
    <circle cx="99.88888888888889" cy="212" r="2" fill="black"/>
    <line stroke="black" x1="99.88888888888889" y1="212.0" x2="99.88888888888889" y2="211.0"/>
    <line stroke="black" x1="97.88888888888889" y1="211.0" x2="101.88888888888889" y2="211.0"/>
    <line stroke="black" x1="99.88888888888889" y1="212.0" x2="99.88888888888889" y2="212.0"/>
    <line stroke="black" x1="97.88888888888889" y1="212.0" x2="101.88888888888889" y2="212.0"/>
    <rect x="115.16666666666666" y="219.0" height="7.0" width="25.0" fill="#9999FF" style="stroke:black"/>
    <text transform="translate(124.66666666666666,231.0) rotate(90)" text-anchor="start">21 to 40</text>
    <circle cx="127.66666666666666" cy="204" r="2" fill="black"/>
    <line stroke="black" x1="127.66666666666666" y1="204.0" x2="127.66666666666666" y2="202.0"/>
    <line stroke="black" x1="125.66666666666666" y1="202.0" x2="129.66666666666666" y2="202.0"/>
    <line stroke="black" x1="127.66666666666666" y1="204.0" x2="127.66666666666666" y2="206.0"/>
    <line stroke="black" x1="125.66666666666666" y1="206.0" x2="129.66666666666666" y2="206.0"/>
    <rect x="142.94444444444443" y="169.0" height="57.0" width="25.0" fill="#9999FF" style="stroke:black"/>
    <text transform="translate(152.44444444444443,231.0) rotate(90)" text-anchor="start">41 to 60</text>
    <circle cx="155.44444444444443" cy="218" r="2" fill="black"/>
    <line stroke="black" x1="155.44444444444443" y1="218.0" x2="155.44444444444443" y2="218.0"/>
    <line stroke="black" x1="153.44444444444443" y1="218.0" x2="157.44444444444443" y2="218.0"/>
    <line stroke="black" x1="155.44444444444443" y1="218.0" x2="155.44444444444443" y2="219.0"/>
    <line stroke="black" x1="153.44444444444443" y1="219.0" x2="157.44444444444443" y2="219.0"/>
    <rect x="170.72222222222223" y="213.0" height="13.0" width="25.0" fill="#9999FF" style="stroke:black"/>
    <text transform="translate(180.22222222222223,231.0) rotate(90)" text-anchor="start">61 to 80</text>
    <circle cx="183.22222222222223" cy="206" r="2" fill="black"/>
    <line stroke="black" x1="183.22222222222223" y1="206.0" x2="183.22222222222223" y2="204.0"/>
    <line stroke="black" x1="181.22222222222223" y1="204.0" x2="185.22222222222223" y2="204.0"/>
    <line stroke="black" x1="183.22222222222223" y1="206.0" x2="183.22222222222223" y2="207.0"/>
    <line stroke="black" x1="181.22222222222223" y1="207.0" x2="185.22222222222223" y2="207.0"/>
    <rect x="198.5" y="226.0" height="0.0" width="25.0" fill="#9999FF" style="stroke:black"/>
    <text transform="translate(208.0,231.0) rotate(90)" text-anchor="start">81 to 100</text>
    <rect x="226.27777777777777" y="130.0" height="96.0" width="25.0" fill="#9999FF" style="stroke:black"/>
    <text transform="translate(235.77777777777777,231.0) rotate(90)" text-anchor="start">101 to 120</text>
    <circle cx="238.77777777777777" cy="217" r="2" fill="black"/>
    <line stroke="black" x1="238.77777777777777" y1="217.0" x2="238.77777777777777" y2="217.0"/>
    <line stroke="black" x1="236.77777777777777" y1="217.0" x2="240.77777777777777" y2="217.0"/>
    <line stroke="black" x1="238.77777777777777" y1="217.0" x2="238.77777777777777" y2="218.0"/>
    <line stroke="black" x1="236.77777777777777" y1="218.0" x2="240.77777777777777" y2="218.0"/>
    <rect x="254.05555555555557" y="216.0" height="10.0" width="25.0" fill="#9999FF" style="stroke:black"/>
    <text transform="translate(263.5555555555556,231.0) rotate(90)" text-anchor="start">121 to 140</text>
    <circle cx="266.5555555555556" cy="206" r="2" fill="black"/>
    <line stroke="black" x1="266.5555555555556" y1="206.0" x2="266.5555555555556" y2="204.0"/>
    <line stroke="black" x1="264.5555555555556" y1="204.0" x2="268.5555555555556" y2="204.0"/>
    <line stroke="black" x1="266.5555555555556" y1="206.0" x2="266.5555555555556" y2="208.0"/>
    <line stroke="black" x1="264.5555555555556" y1="208.0" x2="268.5555555555556" y2="208.0"/>
    <rect x="281.83333333333337" y="224.0" height="2.0" width="25.0" fill="#9999FF" style="stroke:black"/>
    <text transform="translate(291.33333333333337,231.0) rotate(90)" text-anchor="start">141 to 159</text>
    <circle cx="294.33333333333337" cy="220" r="2" fill="black"/>
    <line stroke="black" x1="294.33333333333337" y1="220.0" x2="294.33333333333337" y2="217.0"/>
    <line stroke="black" x1="292.33333333333337" y1="217.0" x2="296.33333333333337" y2="217.0"/>
    <line stroke="black" x1="294.33333333333337" y1="220.0" x2="294.33333333333337" y2="222.0"/>
    <line stroke="black" x1="292.33333333333337" y1="222.0" x2="296.33333333333337" y2="222.0"/>
    <rect x="309.61111111111114" y="180.0" height="46.0" width="25.0" fill="#9999FF" style="stroke:black"/>
    <text transform="translate(319.11111111111114,231.0) rotate(90)" text-anchor="start">&gt;= 160</text>
    <circle cx="322.11111111111114" cy="217" r="2" fill="black"/>
    <line stroke="black" x1="322.11111111111114" y1="217.0" x2="322.11111111111114" y2="216.0"/>
    <line stroke="black" x1="320.11111111111114" y1="216.0" x2="324.11111111111114" y2="216.0"/>
    <line stroke="black" x1="322.11111111111114" y1="217.0" x2="322.11111111111114" y2="217.0"/>
    <line stroke="black" x1="320.11111111111114" y1="217.0" x2="324.11111111111114" y2="217.0"/>
    <line stroke-dasharray="10,5" stroke="black" x1="86.0" y1="214.0" x2="336.0" y2="214.0"/>
    <line stroke="black" x1="336.0" y1="20.0" x2="336.0" y2="226.0"/>
    <line stroke="black" x1="339.0" y1="226.0" x2="336.0" y2="226.0"/>
    <text transform="translate(343.0,226.0)" text-anchor="start"> 0.0</text>
    <line stroke="black" x1="339.0" y1="205.0" x2="336.0" y2="205.0"/>
    <text transform="translate(343.0,205.0)" text-anchor="start"> 0.1</text>
    <line stroke="black" x1="339.0" y1="185.0" x2="336.0" y2="185.0"/>
    <text transform="translate(343.0,185.0)" text-anchor="start"> 0.2</text>
    <line stroke="black" x1="339.0" y1="164.0" x2="336.0" y2="164.0"/>
    <text transform="translate(343.0,164.0)" text-anchor="start"> 0.3</text>
    <line stroke="black" x1="339.0" y1="144.0" x2="336.0" y2="144.0"/>
    <text transform="translate(343.0,144.0)" text-anchor="start"> 0.4</text>
    <line stroke="black" x1="339.0" y1="123.0" x2="336.0" y2="123.0"/>
    <text transform="translate(343.0,123.0)" text-anchor="start"> 0.5</text>
    <line stroke="black" x1="339.0" y1="102.0" x2="336.0" y2="102.0"/>
    <text transform="translate(343.0,102.0)" text-anchor="start"> 0.6</text>
    <line stroke="black" x1="339.0" y1="82.0" x2="336.0" y2="82.0"/>
    <text transform="translate(343.0,82.0)" text-anchor="start"> 0.7</text>
    <line stroke="black" x1="339.0" y1="61.0" x2="336.0" y2="61.0"/>
    <text transform="translate(343.0,61.0)" text-anchor="start"> 0.8</text>
    <line stroke="black" x1="339.0" y1="41.0" x2="336.0" y2="41.0"/>
    <text transform="translate(343.0,41.0)" text-anchor="start"> 0.9</text>
    <line stroke="black" x1="339.0" y1="20.0" x2="336.0" y2="20.0"/>
    <text transform="translate(343.0,20.0)" text-anchor="start"> 1.0</text>
    <text transform="translate(380.0,123.0) rotate(270)" text-anchor="middle">mean(RespondPress)</text>
  </g>
</svg>
