<?xml version="1.0" encoding="UTF-8"?>

<svg viewBox="0 0 400 301">
  <defs/>
  <g>
    <rect x="0.0" y="0.0" height="301.0" width="400.0" fill="white"/>
    <line stroke="black" x1="86.0" y1="256.0" x2="346.0" y2="256.0"/>
    <text transform="translate(211.0,15.0)" text-anchor="middle">NumberOfDependants</text>
    <line stroke="black" x1="86.0" y1="20.0" x2="86.0" y2="256.0"/>
    <line stroke="black" x1="83.0" y1="256.0" x2="86.0" y2="256.0"/>
    <text transform="translate(79.0,256.0)" text-anchor="end"> 0</text>
    <line stroke="black" x1="83.0" y1="234.54545454545453" x2="86.0" y2="234.54545454545453"/>
    <text transform="translate(79.0,234.54545454545453)" text-anchor="end"> 2000</text>
    <line stroke="black" x1="83.0" y1="213.0909090909091" x2="86.0" y2="213.0909090909091"/>
    <text transform="translate(79.0,213.0909090909091)" text-anchor="end"> 4000</text>
    <line stroke="black" x1="83.0" y1="191.63636363636363" x2="86.0" y2="191.63636363636363"/>
    <text transform="translate(79.0,191.63636363636363)" text-anchor="end"> 6000</text>
    <line stroke="black" x1="83.0" y1="170.1818181818182" x2="86.0" y2="170.1818181818182"/>
    <text transform="translate(79.0,170.1818181818182)" text-anchor="end"> 8000</text>
    <line stroke="black" x1="83.0" y1="148.72727272727272" x2="86.0" y2="148.72727272727272"/>
    <text transform="translate(79.0,148.72727272727272)" text-anchor="end"> 10000</text>
    <line stroke="black" x1="83.0" y1="127.27272727272728" x2="86.0" y2="127.27272727272728"/>
    <text transform="translate(79.0,127.27272727272728)" text-anchor="end"> 12000</text>
    <line stroke="black" x1="83.0" y1="105.81818181818181" x2="86.0" y2="105.81818181818181"/>
    <text transform="translate(79.0,105.81818181818181)" text-anchor="end"> 14000</text>
    <line stroke="black" x1="83.0" y1="84.36363636363635" x2="86.0" y2="84.36363636363635"/>
    <text transform="translate(79.0,84.36363636363635)" text-anchor="end"> 16000</text>
    <line stroke="black" x1="83.0" y1="62.90909090909091" x2="86.0" y2="62.90909090909091"/>
    <text transform="translate(79.0,62.90909090909091)" text-anchor="end"> 18000</text>
    <line stroke="black" x1="83.0" y1="41.45454545454544" x2="86.0" y2="41.45454545454544"/>
    <text transform="translate(79.0,41.45454545454544)" text-anchor="end"> 20000</text>
    <line stroke="black" x1="83.0" y1="20.0" x2="86.0" y2="20.0"/>
    <text transform="translate(79.0,20.0)" text-anchor="end"> 22000</text>
    <text transform="translate(30.0,138.0) rotate(270)" text-anchor="middle">count()</text>
    <rect x="87.78571428571429" y="31.0" height="225.0" width="32.142857142857146" fill="#9999FF" style="stroke:black"/>
    <text transform="translate(100.85714285714286,261.0) rotate(90)" text-anchor="start">&lt;= 0</text>
    <circle cx="103.85714285714286" cy="239" r="2" fill="black"/>
    <line stroke="black" x1="103.85714285714286" y1="239.0" x2="103.85714285714286" y2="239.0"/>
    <line stroke="black" x1="101.85714285714286" y1="239.0" x2="105.85714285714286" y2="239.0"/>
    <line stroke="black" x1="103.85714285714286" y1="239.0" x2="103.85714285714286" y2="240.0"/>
    <line stroke="black" x1="101.85714285714286" y1="240.0" x2="105.85714285714286" y2="240.0"/>
    <rect x="123.50000000000001" y="175.0" height="81.0" width="32.142857142857146" fill="#9999FF" style="stroke:black"/>
    <text transform="translate(136.57142857142858,261.0) rotate(90)" text-anchor="start">1</text>
    <circle cx="139.57142857142858" cy="244" r="2" fill="black"/>
    <line stroke="black" x1="139.57142857142858" y1="244.0" x2="139.57142857142858" y2="244.0"/>
    <line stroke="black" x1="137.57142857142858" y1="244.0" x2="141.57142857142858" y2="244.0"/>
    <line stroke="black" x1="139.57142857142858" y1="244.0" x2="139.57142857142858" y2="245.0"/>
    <line stroke="black" x1="137.57142857142858" y1="245.0" x2="141.57142857142858" y2="245.0"/>
    <rect x="159.21428571428572" y="134.0" height="122.0" width="32.142857142857146" fill="#9999FF" style="stroke:black"/>
    <text transform="translate(172.2857142857143,261.0) rotate(90)" text-anchor="start">2</text>
    <circle cx="175.2857142857143" cy="245" r="2" fill="black"/>
    <line stroke="black" x1="175.2857142857143" y1="245.0" x2="175.2857142857143" y2="245.0"/>
    <line stroke="black" x1="173.2857142857143" y1="245.0" x2="177.2857142857143" y2="245.0"/>
    <line stroke="black" x1="175.2857142857143" y1="245.0" x2="175.2857142857143" y2="245.0"/>
    <line stroke="black" x1="173.2857142857143" y1="245.0" x2="177.2857142857143" y2="245.0"/>
    <rect x="194.92857142857142" y="213.0" height="43.0" width="32.142857142857146" fill="#9999FF" style="stroke:black"/>
    <text transform="translate(208.0,261.0) rotate(90)" text-anchor="start">3</text>
    <circle cx="211.0" cy="246" r="2" fill="black"/>
    <line stroke="black" x1="211.0" y1="246.0" x2="211.0" y2="245.0"/>
    <line stroke="black" x1="209.0" y1="245.0" x2="213.0" y2="245.0"/>
    <line stroke="black" x1="211.0" y1="246.0" x2="211.0" y2="246.0"/>
    <line stroke="black" x1="209.0" y1="246.0" x2="213.0" y2="246.0"/>
    <rect x="230.64285714285714" y="246.0" height="10.0" width="32.142857142857146" fill="#9999FF" style="stroke:black"/>
    <text transform="translate(243.71428571428572,261.0) rotate(90)" text-anchor="start">4</text>
    <circle cx="246.71428571428572" cy="246" r="2" fill="black"/>
    <line stroke="black" x1="246.71428571428572" y1="246.0" x2="246.71428571428572" y2="244.0"/>
    <line stroke="black" x1="244.71428571428572" y1="244.0" x2="248.71428571428572" y2="244.0"/>
    <line stroke="black" x1="246.71428571428572" y1="246.0" x2="246.71428571428572" y2="248.0"/>
    <line stroke="black" x1="244.71428571428572" y1="248.0" x2="248.71428571428572" y2="248.0"/>
    <rect x="266.35714285714283" y="254.0" height="2.0" width="32.142857142857146" fill="#9999FF" style="stroke:black"/>
    <text transform="translate(279.4285714285714,261.0) rotate(90)" text-anchor="start">5</text>
    <circle cx="282.4285714285714" cy="243" r="2" fill="black"/>
    <line stroke="black" x1="282.4285714285714" y1="243.0" x2="282.4285714285714" y2="239.0"/>
    <line stroke="black" x1="280.4285714285714" y1="239.0" x2="284.4285714285714" y2="239.0"/>
    <line stroke="black" x1="282.4285714285714" y1="243.0" x2="282.4285714285714" y2="248.0"/>
    <line stroke="black" x1="280.4285714285714" y1="248.0" x2="284.4285714285714" y2="248.0"/>
    <rect x="302.07142857142856" y="255.0" height="1.0" width="32.142857142857146" fill="#9999FF" style="stroke:black"/>
    <text transform="translate(315.1428571428571,261.0) rotate(90)" text-anchor="start">&gt;= 6</text>
    <circle cx="318.1428571428571" cy="249" r="2" fill="black"/>
    <line stroke="black" x1="318.1428571428571" y1="249.0" x2="318.1428571428571" y2="244.0"/>
    <line stroke="black" x1="316.1428571428571" y1="244.0" x2="320.1428571428571" y2="244.0"/>
    <line stroke="black" x1="318.1428571428571" y1="249.0" x2="318.1428571428571" y2="254.0"/>
    <line stroke="black" x1="316.1428571428571" y1="254.0" x2="320.1428571428571" y2="254.0"/>
    <line stroke-dasharray="10,5" stroke="black" x1="86.0" y1="242.0" x2="336.0" y2="242.0"/>
    <line stroke="black" x1="336.0" y1="20.0" x2="336.0" y2="256.0"/>
    <line stroke="black" x1="339.0" y1="256.0" x2="336.0" y2="256.0"/>
    <text transform="translate(343.0,256.0)" text-anchor="start"> 0.0</text>
    <line stroke="black" x1="339.0" y1="232.0" x2="336.0" y2="232.0"/>
    <text transform="translate(343.0,232.0)" text-anchor="start"> 0.1</text>
    <line stroke="black" x1="339.0" y1="209.0" x2="336.0" y2="209.0"/>
    <text transform="translate(343.0,209.0)" text-anchor="start"> 0.2</text>
    <line stroke="black" x1="339.0" y1="185.0" x2="336.0" y2="185.0"/>
    <text transform="translate(343.0,185.0)" text-anchor="start"> 0.3</text>
    <line stroke="black" x1="339.0" y1="162.0" x2="336.0" y2="162.0"/>
    <text transform="translate(343.0,162.0)" text-anchor="start"> 0.4</text>
    <line stroke="black" x1="339.0" y1="138.0" x2="336.0" y2="138.0"/>
    <text transform="translate(343.0,138.0)" text-anchor="start"> 0.5</text>
    <line stroke="black" x1="339.0" y1="114.0" x2="336.0" y2="114.0"/>
    <text transform="translate(343.0,114.0)" text-anchor="start"> 0.6</text>
    <line stroke="black" x1="339.0" y1="91.0" x2="336.0" y2="91.0"/>
    <text transform="translate(343.0,91.0)" text-anchor="start"> 0.7</text>
    <line stroke="black" x1="339.0" y1="67.0" x2="336.0" y2="67.0"/>
    <text transform="translate(343.0,67.0)" text-anchor="start"> 0.8</text>
    <line stroke="black" x1="339.0" y1="44.0" x2="336.0" y2="44.0"/>
    <text transform="translate(343.0,44.0)" text-anchor="start"> 0.9</text>
    <line stroke="black" x1="339.0" y1="20.0" x2="336.0" y2="20.0"/>
    <text transform="translate(343.0,20.0)" text-anchor="start"> 1.0</text>
    <text transform="translate(380.0,138.0) rotate(270)" text-anchor="middle">mean(RespondPress)</text>
  </g>
</svg>
