<?xml version="1.0" encoding="UTF-8"?>

<svg viewBox="0 0 400 301">
  <defs/>
  <g>
    <rect x="0.0" y="0.0" height="301.0" width="400.0" fill="white"/>
    <line stroke="black" x1="80.0" y1="211.0" x2="346.0" y2="211.0"/>
    <text transform="translate(208.0,15.0)" text-anchor="middle">PaymentAmtQtr2</text>
    <line stroke="black" x1="80.0" y1="20.0" x2="80.0" y2="211.0"/>
    <line stroke="black" x1="77.0" y1="211.0" x2="80.0" y2="211.0"/>
    <text transform="translate(73.0,211.0)" text-anchor="end"> 0</text>
    <line stroke="black" x1="77.0" y1="197.35714285714286" x2="80.0" y2="197.35714285714286"/>
    <text transform="translate(73.0,197.35714285714286)" text-anchor="end"> 500</text>
    <line stroke="black" x1="77.0" y1="183.71428571428572" x2="80.0" y2="183.71428571428572"/>
    <text transform="translate(73.0,183.71428571428572)" text-anchor="end"> 1000</text>
    <line stroke="black" x1="77.0" y1="170.07142857142858" x2="80.0" y2="170.07142857142858"/>
    <text transform="translate(73.0,170.07142857142858)" text-anchor="end"> 1500</text>
    <line stroke="black" x1="77.0" y1="156.42857142857144" x2="80.0" y2="156.42857142857144"/>
    <text transform="translate(73.0,156.42857142857144)" text-anchor="end"> 2000</text>
    <line stroke="black" x1="77.0" y1="142.78571428571428" x2="80.0" y2="142.78571428571428"/>
    <text transform="translate(73.0,142.78571428571428)" text-anchor="end"> 2500</text>
    <line stroke="black" x1="77.0" y1="129.14285714285717" x2="80.0" y2="129.14285714285717"/>
    <text transform="translate(73.0,129.14285714285717)" text-anchor="end"> 3000</text>
    <line stroke="black" x1="77.0" y1="115.5" x2="80.0" y2="115.5"/>
    <text transform="translate(73.0,115.5)" text-anchor="end"> 3500</text>
    <line stroke="black" x1="77.0" y1="101.85714285714286" x2="80.0" y2="101.85714285714286"/>
    <text transform="translate(73.0,101.85714285714286)" text-anchor="end"> 4000</text>
    <line stroke="black" x1="77.0" y1="88.21428571428572" x2="80.0" y2="88.21428571428572"/>
    <text transform="translate(73.0,88.21428571428572)" text-anchor="end"> 4500</text>
    <line stroke="black" x1="77.0" y1="74.57142857142858" x2="80.0" y2="74.57142857142858"/>
    <text transform="translate(73.0,74.57142857142858)" text-anchor="end"> 5000</text>
    <line stroke="black" x1="77.0" y1="60.928571428571445" x2="80.0" y2="60.928571428571445"/>
    <text transform="translate(73.0,60.928571428571445)" text-anchor="end"> 5500</text>
    <line stroke="black" x1="77.0" y1="47.285714285714306" x2="80.0" y2="47.285714285714306"/>
    <text transform="translate(73.0,47.285714285714306)" text-anchor="end"> 6000</text>
    <line stroke="black" x1="77.0" y1="33.64285714285714" x2="80.0" y2="33.64285714285714"/>
    <text transform="translate(73.0,33.64285714285714)" text-anchor="end"> 6500</text>
    <line stroke="black" x1="77.0" y1="20.0" x2="80.0" y2="20.0"/>
    <text transform="translate(73.0,20.0)" text-anchor="end"> 7000</text>
    <text transform="translate(30.0,115.0) rotate(270)" text-anchor="middle">count()</text>
    <rect x="81.16363636363636" y="28.0" height="183.0" width="20.945454545454545" fill="#9999FF" style="stroke:black"/>
    <text transform="translate(88.63636363636364,216.0) rotate(90)" text-anchor="start">&lt; 0.2</text>
    <circle cx="91.63636363636364" cy="200" r="2" fill="black"/>
    <line stroke="black" x1="91.63636363636364" y1="200.0" x2="91.63636363636364" y2="200.0"/>
    <line stroke="black" x1="89.63636363636364" y1="200.0" x2="93.63636363636364" y2="200.0"/>
    <line stroke="black" x1="91.63636363636364" y1="200.0" x2="91.63636363636364" y2="201.0"/>
    <line stroke="black" x1="89.63636363636364" y1="201.0" x2="93.63636363636364" y2="201.0"/>
    <rect x="104.43636363636364" y="100.0" height="111.0" width="20.945454545454545" fill="#9999FF" style="stroke:black"/>
    <text transform="translate(111.90909090909092,216.0) rotate(90)" text-anchor="start">[0.2, 18.9)</text>
    <circle cx="114.90909090909092" cy="199" r="2" fill="black"/>
    <line stroke="black" x1="114.90909090909092" y1="199.0" x2="114.90909090909092" y2="199.0"/>
    <line stroke="black" x1="112.90909090909092" y1="199.0" x2="116.90909090909092" y2="199.0"/>
    <line stroke="black" x1="114.90909090909092" y1="199.0" x2="114.90909090909092" y2="200.0"/>
    <line stroke="black" x1="112.90909090909092" y1="200.0" x2="116.90909090909092" y2="200.0"/>
    <rect x="127.7090909090909" y="105.0" height="106.0" width="20.945454545454545" fill="#9999FF" style="stroke:black"/>
    <text transform="translate(135.1818181818182,216.0) rotate(90)" text-anchor="start">[18.9, 24.2)</text>
    <circle cx="138.1818181818182" cy="200" r="2" fill="black"/>
    <line stroke="black" x1="138.1818181818182" y1="200.0" x2="138.1818181818182" y2="199.0"/>
    <line stroke="black" x1="136.1818181818182" y1="199.0" x2="140.1818181818182" y2="199.0"/>
    <line stroke="black" x1="138.1818181818182" y1="200.0" x2="138.1818181818182" y2="201.0"/>
    <line stroke="black" x1="136.1818181818182" y1="201.0" x2="140.1818181818182" y2="201.0"/>
    <rect x="150.98181818181817" y="96.0" height="115.0" width="20.945454545454545" fill="#9999FF" style="stroke:black"/>
    <text transform="translate(158.45454545454544,216.0) rotate(90)" text-anchor="start">[24.2, 29.75)</text>
    <circle cx="161.45454545454544" cy="199" r="2" fill="black"/>
    <line stroke="black" x1="161.45454545454544" y1="199.0" x2="161.45454545454544" y2="199.0"/>
    <line stroke="black" x1="159.45454545454544" y1="199.0" x2="163.45454545454544" y2="199.0"/>
    <line stroke="black" x1="161.45454545454544" y1="199.0" x2="161.45454545454544" y2="200.0"/>
    <line stroke="black" x1="159.45454545454544" y1="200.0" x2="163.45454545454544" y2="200.0"/>
    <rect x="174.25454545454545" y="99.0" height="112.0" width="20.945454545454545" fill="#9999FF" style="stroke:black"/>
    <text transform="translate(181.72727272727272,216.0) rotate(90)" text-anchor="start">[29.75, 35.6)</text>
    <circle cx="184.72727272727272" cy="200" r="2" fill="black"/>
    <line stroke="black" x1="184.72727272727272" y1="200.0" x2="184.72727272727272" y2="199.0"/>
    <line stroke="black" x1="182.72727272727272" y1="199.0" x2="186.72727272727272" y2="199.0"/>
    <line stroke="black" x1="184.72727272727272" y1="200.0" x2="184.72727272727272" y2="201.0"/>
    <line stroke="black" x1="182.72727272727272" y1="201.0" x2="186.72727272727272" y2="201.0"/>
    <rect x="197.52727272727273" y="101.0" height="110.0" width="20.945454545454545" fill="#9999FF" style="stroke:black"/>
    <text transform="translate(205.0,216.0) rotate(90)" text-anchor="start">[35.6, 42.9)</text>
    <circle cx="208.0" cy="200" r="2" fill="black"/>
    <line stroke="black" x1="208.0" y1="200.0" x2="208.0" y2="199.0"/>
    <line stroke="black" x1="206.0" y1="199.0" x2="210.0" y2="199.0"/>
    <line stroke="black" x1="208.0" y1="200.0" x2="208.0" y2="200.0"/>
    <line stroke="black" x1="206.0" y1="200.0" x2="210.0" y2="200.0"/>
    <rect x="220.79999999999998" y="97.0" height="114.0" width="20.945454545454545" fill="#9999FF" style="stroke:black"/>
    <text transform="translate(228.27272727272725,216.0) rotate(90)" text-anchor="start">[42.9, 52.75)</text>
    <circle cx="231.27272727272725" cy="200" r="2" fill="black"/>
    <line stroke="black" x1="231.27272727272725" y1="200.0" x2="231.27272727272725" y2="199.0"/>
    <line stroke="black" x1="229.27272727272725" y1="199.0" x2="233.27272727272725" y2="199.0"/>
    <line stroke="black" x1="231.27272727272725" y1="200.0" x2="231.27272727272725" y2="201.0"/>
    <line stroke="black" x1="229.27272727272725" y1="201.0" x2="233.27272727272725" y2="201.0"/>
    <rect x="244.07272727272726" y="97.0" height="114.0" width="20.945454545454545" fill="#9999FF" style="stroke:black"/>
    <text transform="translate(251.54545454545453,216.0) rotate(90)" text-anchor="start">[52.75, 67.3)</text>
    <circle cx="254.54545454545453" cy="200" r="2" fill="black"/>
    <line stroke="black" x1="254.54545454545453" y1="200.0" x2="254.54545454545453" y2="200.0"/>
    <line stroke="black" x1="252.54545454545453" y1="200.0" x2="256.5454545454545" y2="200.0"/>
    <line stroke="black" x1="254.54545454545453" y1="200.0" x2="254.54545454545453" y2="201.0"/>
    <line stroke="black" x1="252.54545454545453" y1="201.0" x2="256.5454545454545" y2="201.0"/>
    <rect x="267.3454545454546" y="98.0" height="113.0" width="20.945454545454545" fill="#9999FF" style="stroke:black"/>
    <text transform="translate(274.8181818181818,216.0) rotate(90)" text-anchor="start">[67.3, 94.1)</text>
    <circle cx="277.8181818181818" cy="198" r="2" fill="black"/>
    <line stroke="black" x1="277.8181818181818" y1="198.0" x2="277.8181818181818" y2="198.0"/>
    <line stroke="black" x1="275.8181818181818" y1="198.0" x2="279.8181818181818" y2="198.0"/>
    <line stroke="black" x1="277.8181818181818" y1="198.0" x2="277.8181818181818" y2="199.0"/>
    <line stroke="black" x1="275.8181818181818" y1="199.0" x2="279.8181818181818" y2="199.0"/>
    <rect x="290.6181818181819" y="99.0" height="112.0" width="20.945454545454545" fill="#9999FF" style="stroke:black"/>
    <text transform="translate(298.0909090909091,216.0) rotate(90)" text-anchor="start">[94.1, 200)</text>
    <circle cx="301.0909090909091" cy="200" r="2" fill="black"/>
    <line stroke="black" x1="301.0909090909091" y1="200.0" x2="301.0909090909091" y2="199.0"/>
    <line stroke="black" x1="299.0909090909091" y1="199.0" x2="303.0909090909091" y2="199.0"/>
    <line stroke="black" x1="301.0909090909091" y1="200.0" x2="301.0909090909091" y2="201.0"/>
    <line stroke="black" x1="299.0909090909091" y1="201.0" x2="303.0909090909091" y2="201.0"/>
    <rect x="313.89090909090913" y="174.0" height="37.0" width="20.945454545454545" fill="#9999FF" style="stroke:black"/>
    <text transform="translate(321.3636363636364,216.0) rotate(90)" text-anchor="start">&gt;= 200</text>
    <circle cx="324.3636363636364" cy="201" r="2" fill="black"/>
    <line stroke="black" x1="324.3636363636364" y1="201.0" x2="324.3636363636364" y2="200.0"/>
    <line stroke="black" x1="322.3636363636364" y1="200.0" x2="326.3636363636364" y2="200.0"/>
    <line stroke="black" x1="324.3636363636364" y1="201.0" x2="324.3636363636364" y2="202.0"/>
    <line stroke="black" x1="322.3636363636364" y1="202.0" x2="326.3636363636364" y2="202.0"/>
    <line stroke-dasharray="10,5" stroke="black" x1="80.0" y1="200.0" x2="336.0" y2="200.0"/>
    <line stroke="black" x1="336.0" y1="20.0" x2="336.0" y2="211.0"/>
    <line stroke="black" x1="339.0" y1="211.0" x2="336.0" y2="211.0"/>
    <text transform="translate(343.0,211.0)" text-anchor="start"> 0.0</text>
    <line stroke="black" x1="339.0" y1="192.0" x2="336.0" y2="192.0"/>
    <text transform="translate(343.0,192.0)" text-anchor="start"> 0.1</text>
    <line stroke="black" x1="339.0" y1="173.0" x2="336.0" y2="173.0"/>
    <text transform="translate(343.0,173.0)" text-anchor="start"> 0.2</text>
    <line stroke="black" x1="339.0" y1="154.0" x2="336.0" y2="154.0"/>
    <text transform="translate(343.0,154.0)" text-anchor="start"> 0.3</text>
    <line stroke="black" x1="339.0" y1="135.0" x2="336.0" y2="135.0"/>
    <text transform="translate(343.0,135.0)" text-anchor="start"> 0.4</text>
    <line stroke="black" x1="339.0" y1="115.0" x2="336.0" y2="115.0"/>
    <text transform="translate(343.0,115.0)" text-anchor="start"> 0.5</text>
    <line stroke="black" x1="339.0" y1="96.0" x2="336.0" y2="96.0"/>
    <text transform="translate(343.0,96.0)" text-anchor="start"> 0.6</text>
    <line stroke="black" x1="339.0" y1="77.0" x2="336.0" y2="77.0"/>
    <text transform="translate(343.0,77.0)" text-anchor="start"> 0.7</text>
    <line stroke="black" x1="339.0" y1="58.0" x2="336.0" y2="58.0"/>
    <text transform="translate(343.0,58.0)" text-anchor="start"> 0.8</text>
    <line stroke="black" x1="339.0" y1="39.0" x2="336.0" y2="39.0"/>
    <text transform="translate(343.0,39.0)" text-anchor="start"> 0.9</text>
    <line stroke="black" x1="339.0" y1="20.0" x2="336.0" y2="20.0"/>
    <text transform="translate(343.0,20.0)" text-anchor="start"> 1.0</text>
    <text transform="translate(380.0,115.0) rotate(270)" text-anchor="middle">mean(RespondPress)</text>
  </g>
</svg>
