<?xml version="1.0" encoding="UTF-8"?>

<svg viewBox="0 0 400 301">
  <defs/>
  <g>
    <rect x="0.0" y="0.0" height="301.0" width="400.0" fill="white"/>
    <line stroke="black" x1="80.0" y1="216.0" x2="346.0" y2="216.0"/>
    <text transform="translate(208.0,15.0)" text-anchor="middle">ThreeMonthSwing</text>
    <line stroke="black" x1="80.0" y1="20.0" x2="80.0" y2="216.0"/>
    <line stroke="black" x1="77.0" y1="216.0" x2="80.0" y2="216.0"/>
    <text transform="translate(73.0,216.0)" text-anchor="end"> 0</text>
    <line stroke="black" x1="77.0" y1="200.92307692307693" x2="80.0" y2="200.92307692307693"/>
    <text transform="translate(73.0,200.92307692307693)" text-anchor="end"> 500</text>
    <line stroke="black" x1="77.0" y1="185.84615384615384" x2="80.0" y2="185.84615384615384"/>
    <text transform="translate(73.0,185.84615384615384)" text-anchor="end"> 1000</text>
    <line stroke="black" x1="77.0" y1="170.76923076923077" x2="80.0" y2="170.76923076923077"/>
    <text transform="translate(73.0,170.76923076923077)" text-anchor="end"> 1500</text>
    <line stroke="black" x1="77.0" y1="155.69230769230768" x2="80.0" y2="155.69230769230768"/>
    <text transform="translate(73.0,155.69230769230768)" text-anchor="end"> 2000</text>
    <line stroke="black" x1="77.0" y1="140.6153846153846" x2="80.0" y2="140.6153846153846"/>
    <text transform="translate(73.0,140.6153846153846)" text-anchor="end"> 2500</text>
    <line stroke="black" x1="77.0" y1="125.53846153846155" x2="80.0" y2="125.53846153846155"/>
    <text transform="translate(73.0,125.53846153846155)" text-anchor="end"> 3000</text>
    <line stroke="black" x1="77.0" y1="110.46153846153847" x2="80.0" y2="110.46153846153847"/>
    <text transform="translate(73.0,110.46153846153847)" text-anchor="end"> 3500</text>
    <line stroke="black" x1="77.0" y1="95.38461538461539" x2="80.0" y2="95.38461538461539"/>
    <text transform="translate(73.0,95.38461538461539)" text-anchor="end"> 4000</text>
    <line stroke="black" x1="77.0" y1="80.30769230769232" x2="80.0" y2="80.30769230769232"/>
    <text transform="translate(73.0,80.30769230769232)" text-anchor="end"> 4500</text>
    <line stroke="black" x1="77.0" y1="65.23076923076923" x2="80.0" y2="65.23076923076923"/>
    <text transform="translate(73.0,65.23076923076923)" text-anchor="end"> 5000</text>
    <line stroke="black" x1="77.0" y1="50.15384615384616" x2="80.0" y2="50.15384615384616"/>
    <text transform="translate(73.0,50.15384615384616)" text-anchor="end"> 5500</text>
    <line stroke="black" x1="77.0" y1="35.076923076923094" x2="80.0" y2="35.076923076923094"/>
    <text transform="translate(73.0,35.076923076923094)" text-anchor="end"> 6000</text>
    <line stroke="black" x1="77.0" y1="20.0" x2="80.0" y2="20.0"/>
    <text transform="translate(73.0,20.0)" text-anchor="end"> 6500</text>
    <text transform="translate(30.0,118.0) rotate(270)" text-anchor="middle">count()</text>
    <rect x="81.16363636363636" y="89.0" height="127.0" width="20.945454545454545" fill="#9999FF" style="stroke:black"/>
    <text transform="translate(88.63636363636364,221.0) rotate(90)" text-anchor="start">&lt; 500</text>
    <circle cx="91.63636363636364" cy="207" r="2" fill="black"/>
    <line stroke="black" x1="91.63636363636364" y1="207.0" x2="91.63636363636364" y2="207.0"/>
    <line stroke="black" x1="89.63636363636364" y1="207.0" x2="93.63636363636364" y2="207.0"/>
    <line stroke="black" x1="91.63636363636364" y1="207.0" x2="91.63636363636364" y2="208.0"/>
    <line stroke="black" x1="89.63636363636364" y1="208.0" x2="93.63636363636364" y2="208.0"/>
    <rect x="104.43636363636364" y="70.0" height="146.0" width="20.945454545454545" fill="#9999FF" style="stroke:black"/>
    <text transform="translate(111.90909090909092,221.0) rotate(90)" text-anchor="start">[500, 1000)</text>
    <circle cx="114.90909090909092" cy="207" r="2" fill="black"/>
    <line stroke="black" x1="114.90909090909092" y1="207.0" x2="114.90909090909092" y2="207.0"/>
    <line stroke="black" x1="112.90909090909092" y1="207.0" x2="116.90909090909092" y2="207.0"/>
    <line stroke="black" x1="114.90909090909092" y1="207.0" x2="114.90909090909092" y2="208.0"/>
    <line stroke="black" x1="112.90909090909092" y1="208.0" x2="116.90909090909092" y2="208.0"/>
    <rect x="127.7090909090909" y="33.0" height="183.0" width="20.945454545454545" fill="#9999FF" style="stroke:black"/>
    <text transform="translate(135.1818181818182,221.0) rotate(90)" text-anchor="start">[1000, 1500)</text>
    <circle cx="138.1818181818182" cy="207" r="2" fill="black"/>
    <line stroke="black" x1="138.1818181818182" y1="207.0" x2="138.1818181818182" y2="206.0"/>
    <line stroke="black" x1="136.1818181818182" y1="206.0" x2="140.1818181818182" y2="206.0"/>
    <line stroke="black" x1="138.1818181818182" y1="207.0" x2="138.1818181818182" y2="207.0"/>
    <line stroke="black" x1="136.1818181818182" y1="207.0" x2="140.1818181818182" y2="207.0"/>
    <rect x="150.98181818181817" y="21.0" height="195.0" width="20.945454545454545" fill="#9999FF" style="stroke:black"/>
    <text transform="translate(158.45454545454544,221.0) rotate(90)" text-anchor="start">[1500, 2000)</text>
    <circle cx="161.45454545454544" cy="206" r="2" fill="black"/>
    <line stroke="black" x1="161.45454545454544" y1="206.0" x2="161.45454545454544" y2="205.0"/>
    <line stroke="black" x1="159.45454545454544" y1="205.0" x2="163.45454545454544" y2="205.0"/>
    <line stroke="black" x1="161.45454545454544" y1="206.0" x2="161.45454545454544" y2="207.0"/>
    <line stroke="black" x1="159.45454545454544" y1="207.0" x2="163.45454545454544" y2="207.0"/>
    <rect x="174.25454545454545" y="42.0" height="174.0" width="20.945454545454545" fill="#9999FF" style="stroke:black"/>
    <text transform="translate(181.72727272727272,221.0) rotate(90)" text-anchor="start">[2000, 2500)</text>
    <circle cx="184.72727272727272" cy="205" r="2" fill="black"/>
    <line stroke="black" x1="184.72727272727272" y1="205.0" x2="184.72727272727272" y2="205.0"/>
    <line stroke="black" x1="182.72727272727272" y1="205.0" x2="186.72727272727272" y2="205.0"/>
    <line stroke="black" x1="184.72727272727272" y1="205.0" x2="184.72727272727272" y2="206.0"/>
    <line stroke="black" x1="182.72727272727272" y1="206.0" x2="186.72727272727272" y2="206.0"/>
    <rect x="197.52727272727273" y="70.0" height="146.0" width="20.945454545454545" fill="#9999FF" style="stroke:black"/>
    <text transform="translate(205.0,221.0) rotate(90)" text-anchor="start">[2500, 3000)</text>
    <circle cx="208.0" cy="203" r="2" fill="black"/>
    <line stroke="black" x1="208.0" y1="203.0" x2="208.0" y2="203.0"/>
    <line stroke="black" x1="206.0" y1="203.0" x2="210.0" y2="203.0"/>
    <line stroke="black" x1="208.0" y1="203.0" x2="208.0" y2="204.0"/>
    <line stroke="black" x1="206.0" y1="204.0" x2="210.0" y2="204.0"/>
    <rect x="220.79999999999998" y="100.0" height="116.0" width="20.945454545454545" fill="#9999FF" style="stroke:black"/>
    <text transform="translate(228.27272727272725,221.0) rotate(90)" text-anchor="start">[3000, 3500)</text>
    <circle cx="231.27272727272725" cy="203" r="2" fill="black"/>
    <line stroke="black" x1="231.27272727272725" y1="203.0" x2="231.27272727272725" y2="202.0"/>
    <line stroke="black" x1="229.27272727272725" y1="202.0" x2="233.27272727272725" y2="202.0"/>
    <line stroke="black" x1="231.27272727272725" y1="203.0" x2="231.27272727272725" y2="204.0"/>
    <line stroke="black" x1="229.27272727272725" y1="204.0" x2="233.27272727272725" y2="204.0"/>
    <rect x="244.07272727272726" y="130.0" height="86.0" width="20.945454545454545" fill="#9999FF" style="stroke:black"/>
    <text transform="translate(251.54545454545453,221.0) rotate(90)" text-anchor="start">[3500, 4000)</text>
    <circle cx="254.54545454545453" cy="201" r="2" fill="black"/>
    <line stroke="black" x1="254.54545454545453" y1="201.0" x2="254.54545454545453" y2="200.0"/>
    <line stroke="black" x1="252.54545454545453" y1="200.0" x2="256.5454545454545" y2="200.0"/>
    <line stroke="black" x1="254.54545454545453" y1="201.0" x2="254.54545454545453" y2="202.0"/>
    <line stroke="black" x1="252.54545454545453" y1="202.0" x2="256.5454545454545" y2="202.0"/>
    <rect x="267.3454545454546" y="154.0" height="62.0" width="20.945454545454545" fill="#9999FF" style="stroke:black"/>
    <text transform="translate(274.8181818181818,221.0) rotate(90)" text-anchor="start">[4000, 4500)</text>
    <circle cx="277.8181818181818" cy="200" r="2" fill="black"/>
    <line stroke="black" x1="277.8181818181818" y1="200.0" x2="277.8181818181818" y2="199.0"/>
    <line stroke="black" x1="275.8181818181818" y1="199.0" x2="279.8181818181818" y2="199.0"/>
    <line stroke="black" x1="277.8181818181818" y1="200.0" x2="277.8181818181818" y2="202.0"/>
    <line stroke="black" x1="275.8181818181818" y1="202.0" x2="279.8181818181818" y2="202.0"/>
    <rect x="290.6181818181819" y="173.0" height="43.0" width="20.945454545454545" fill="#9999FF" style="stroke:black"/>
    <text transform="translate(298.0909090909091,221.0) rotate(90)" text-anchor="start">[4500, 5000)</text>
    <circle cx="301.0909090909091" cy="200" r="2" fill="black"/>
    <line stroke="black" x1="301.0909090909091" y1="200.0" x2="301.0909090909091" y2="198.0"/>
    <line stroke="black" x1="299.0909090909091" y1="198.0" x2="303.0909090909091" y2="198.0"/>
    <line stroke="black" x1="301.0909090909091" y1="200.0" x2="301.0909090909091" y2="201.0"/>
    <line stroke="black" x1="299.0909090909091" y1="201.0" x2="303.0909090909091" y2="201.0"/>
    <rect x="313.89090909090913" y="138.0" height="78.0" width="20.945454545454545" fill="#9999FF" style="stroke:black"/>
    <text transform="translate(321.3636363636364,221.0) rotate(90)" text-anchor="start">&gt;= 5000</text>
    <circle cx="324.3636363636364" cy="199" r="2" fill="black"/>
    <line stroke="black" x1="324.3636363636364" y1="199.0" x2="324.3636363636364" y2="197.0"/>
    <line stroke="black" x1="322.3636363636364" y1="197.0" x2="326.3636363636364" y2="197.0"/>
    <line stroke="black" x1="324.3636363636364" y1="199.0" x2="324.3636363636364" y2="200.0"/>
    <line stroke="black" x1="322.3636363636364" y1="200.0" x2="326.3636363636364" y2="200.0"/>
    <line stroke-dasharray="10,5" stroke="black" x1="80.0" y1="205.0" x2="336.0" y2="205.0"/>
    <line stroke="black" x1="336.0" y1="20.0" x2="336.0" y2="216.0"/>
    <line stroke="black" x1="339.0" y1="216.0" x2="336.0" y2="216.0"/>
    <text transform="translate(343.0,216.0)" text-anchor="start"> 0.0</text>
    <line stroke="black" x1="339.0" y1="196.0" x2="336.0" y2="196.0"/>
    <text transform="translate(343.0,196.0)" text-anchor="start"> 0.1</text>
    <line stroke="black" x1="339.0" y1="177.0" x2="336.0" y2="177.0"/>
    <text transform="translate(343.0,177.0)" text-anchor="start"> 0.2</text>
    <line stroke="black" x1="339.0" y1="157.0" x2="336.0" y2="157.0"/>
    <text transform="translate(343.0,157.0)" text-anchor="start"> 0.3</text>
    <line stroke="black" x1="339.0" y1="138.0" x2="336.0" y2="138.0"/>
    <text transform="translate(343.0,138.0)" text-anchor="start"> 0.4</text>
    <line stroke="black" x1="339.0" y1="118.0" x2="336.0" y2="118.0"/>
    <text transform="translate(343.0,118.0)" text-anchor="start"> 0.5</text>
    <line stroke="black" x1="339.0" y1="98.0" x2="336.0" y2="98.0"/>
    <text transform="translate(343.0,98.0)" text-anchor="start"> 0.6</text>
    <line stroke="black" x1="339.0" y1="79.0" x2="336.0" y2="79.0"/>
    <text transform="translate(343.0,79.0)" text-anchor="start"> 0.7</text>
    <line stroke="black" x1="339.0" y1="59.0" x2="336.0" y2="59.0"/>
    <text transform="translate(343.0,59.0)" text-anchor="start"> 0.8</text>
    <line stroke="black" x1="339.0" y1="40.0" x2="336.0" y2="40.0"/>
    <text transform="translate(343.0,40.0)" text-anchor="start"> 0.9</text>
    <line stroke="black" x1="339.0" y1="20.0" x2="336.0" y2="20.0"/>
    <text transform="translate(343.0,20.0)" text-anchor="start"> 1.0</text>
    <text transform="translate(380.0,118.0) rotate(270)" text-anchor="middle">mean(RespondPress)</text>
  </g>
</svg>
