<?xml version="1.0" encoding="UTF-8"?>

<svg viewBox="0 0 400 301">
  <defs/>
  <g>
    <rect x="0.0" y="0.0" height="301.0" width="400.0" fill="white"/>
    <line stroke="black" x1="86.0" y1="236.0" x2="346.0" y2="236.0"/>
    <text transform="translate(211.0,15.0)" text-anchor="middle">TimeAtAddressMonths</text>
    <line stroke="black" x1="86.0" y1="20.0" x2="86.0" y2="236.0"/>
    <line stroke="black" x1="83.0" y1="236.0" x2="86.0" y2="236.0"/>
    <text transform="translate(79.0,236.0)" text-anchor="end"> 0</text>
    <line stroke="black" x1="83.0" y1="216.36363636363637" x2="86.0" y2="216.36363636363637"/>
    <text transform="translate(79.0,216.36363636363637)" text-anchor="end"> 1000</text>
    <line stroke="black" x1="83.0" y1="196.72727272727272" x2="86.0" y2="196.72727272727272"/>
    <text transform="translate(79.0,196.72727272727272)" text-anchor="end"> 2000</text>
    <line stroke="black" x1="83.0" y1="177.0909090909091" x2="86.0" y2="177.0909090909091"/>
    <text transform="translate(79.0,177.0909090909091)" text-anchor="end"> 3000</text>
    <line stroke="black" x1="83.0" y1="157.45454545454544" x2="86.0" y2="157.45454545454544"/>
    <text transform="translate(79.0,157.45454545454544)" text-anchor="end"> 4000</text>
    <line stroke="black" x1="83.0" y1="137.8181818181818" x2="86.0" y2="137.8181818181818"/>
    <text transform="translate(79.0,137.8181818181818)" text-anchor="end"> 5000</text>
    <line stroke="black" x1="83.0" y1="118.18181818181819" x2="86.0" y2="118.18181818181819"/>
    <text transform="translate(79.0,118.18181818181819)" text-anchor="end"> 6000</text>
    <line stroke="black" x1="83.0" y1="98.54545454545456" x2="86.0" y2="98.54545454545456"/>
    <text transform="translate(79.0,98.54545454545456)" text-anchor="end"> 7000</text>
    <line stroke="black" x1="83.0" y1="78.9090909090909" x2="86.0" y2="78.9090909090909"/>
    <text transform="translate(79.0,78.9090909090909)" text-anchor="end"> 8000</text>
    <line stroke="black" x1="83.0" y1="59.27272727272728" x2="86.0" y2="59.27272727272728"/>
    <text transform="translate(79.0,59.27272727272728)" text-anchor="end"> 9000</text>
    <line stroke="black" x1="83.0" y1="39.636363636363654" x2="86.0" y2="39.636363636363654"/>
    <text transform="translate(79.0,39.636363636363654)" text-anchor="end"> 10000</text>
    <line stroke="black" x1="83.0" y1="20.0" x2="86.0" y2="20.0"/>
    <text transform="translate(79.0,20.0)" text-anchor="end"> 11000</text>
    <text transform="translate(30.0,128.0) rotate(270)" text-anchor="middle">count()</text>
    <rect x="87.13636363636364" y="38.0" height="198.0" width="20.454545454545453" fill="#9999FF" style="stroke:black"/>
    <text transform="translate(94.36363636363636,241.0) rotate(90)" text-anchor="start">&lt;= 1</text>
    <circle cx="97.36363636363636" cy="222" r="2" fill="black"/>
    <line stroke="black" x1="97.36363636363636" y1="222.0" x2="97.36363636363636" y2="222.0"/>
    <line stroke="black" x1="95.36363636363636" y1="222.0" x2="99.36363636363636" y2="222.0"/>
    <line stroke="black" x1="97.36363636363636" y1="222.0" x2="97.36363636363636" y2="223.0"/>
    <line stroke="black" x1="95.36363636363636" y1="223.0" x2="99.36363636363636" y2="223.0"/>
    <rect x="109.86363636363636" y="104.0" height="132.0" width="20.454545454545453" fill="#9999FF" style="stroke:black"/>
    <text transform="translate(117.09090909090908,241.0) rotate(90)" text-anchor="start">2 to 3</text>
    <circle cx="120.09090909090908" cy="223" r="2" fill="black"/>
    <line stroke="black" x1="120.09090909090908" y1="223.0" x2="120.09090909090908" y2="223.0"/>
    <line stroke="black" x1="118.09090909090908" y1="223.0" x2="122.09090909090908" y2="223.0"/>
    <line stroke="black" x1="120.09090909090908" y1="223.0" x2="120.09090909090908" y2="224.0"/>
    <line stroke="black" x1="118.09090909090908" y1="224.0" x2="122.09090909090908" y2="224.0"/>
    <rect x="132.59090909090907" y="122.0" height="114.0" width="20.454545454545453" fill="#9999FF" style="stroke:black"/>
    <text transform="translate(139.8181818181818,241.0) rotate(90)" text-anchor="start">4 to 5</text>
    <circle cx="142.8181818181818" cy="224" r="2" fill="black"/>
    <line stroke="black" x1="142.8181818181818" y1="224.0" x2="142.8181818181818" y2="223.0"/>
    <line stroke="black" x1="140.8181818181818" y1="223.0" x2="144.8181818181818" y2="223.0"/>
    <line stroke="black" x1="142.8181818181818" y1="224.0" x2="142.8181818181818" y2="225.0"/>
    <line stroke="black" x1="140.8181818181818" y1="225.0" x2="144.8181818181818" y2="225.0"/>
    <rect x="155.3181818181818" y="114.0" height="122.0" width="20.454545454545453" fill="#9999FF" style="stroke:black"/>
    <text transform="translate(162.54545454545456,241.0) rotate(90)" text-anchor="start">6 to 7</text>
    <circle cx="165.54545454545456" cy="225" r="2" fill="black"/>
    <line stroke="black" x1="165.54545454545456" y1="225.0" x2="165.54545454545456" y2="224.0"/>
    <line stroke="black" x1="163.54545454545456" y1="224.0" x2="167.54545454545456" y2="224.0"/>
    <line stroke="black" x1="165.54545454545456" y1="225.0" x2="165.54545454545456" y2="225.0"/>
    <line stroke="black" x1="163.54545454545456" y1="225.0" x2="167.54545454545456" y2="225.0"/>
    <rect x="178.04545454545453" y="153.0" height="83.0" width="20.454545454545453" fill="#9999FF" style="stroke:black"/>
    <text transform="translate(185.27272727272728,241.0) rotate(90)" text-anchor="start">8 to 9</text>
    <circle cx="188.27272727272728" cy="223" r="2" fill="black"/>
    <line stroke="black" x1="188.27272727272728" y1="223.0" x2="188.27272727272728" y2="222.0"/>
    <line stroke="black" x1="186.27272727272728" y1="222.0" x2="190.27272727272728" y2="222.0"/>
    <line stroke="black" x1="188.27272727272728" y1="223.0" x2="188.27272727272728" y2="224.0"/>
    <line stroke="black" x1="186.27272727272728" y1="224.0" x2="190.27272727272728" y2="224.0"/>
    <rect x="200.77272727272725" y="174.0" height="62.0" width="20.454545454545453" fill="#9999FF" style="stroke:black"/>
    <text transform="translate(208.0,241.0) rotate(90)" text-anchor="start">10 to 11</text>
    <circle cx="211.0" cy="224" r="2" fill="black"/>
    <line stroke="black" x1="211.0" y1="224.0" x2="211.0" y2="223.0"/>
    <line stroke="black" x1="209.0" y1="223.0" x2="213.0" y2="223.0"/>
    <line stroke="black" x1="211.0" y1="224.0" x2="211.0" y2="225.0"/>
    <line stroke="black" x1="209.0" y1="225.0" x2="213.0" y2="225.0"/>
    <rect x="223.5" y="191.0" height="45.0" width="20.454545454545453" fill="#9999FF" style="stroke:black"/>
    <text transform="translate(230.72727272727275,241.0) rotate(90)" text-anchor="start">12 to 13</text>
    <circle cx="233.72727272727275" cy="222" r="2" fill="black"/>
    <line stroke="black" x1="233.72727272727275" y1="222.0" x2="233.72727272727275" y2="221.0"/>
    <line stroke="black" x1="231.72727272727275" y1="221.0" x2="235.72727272727275" y2="221.0"/>
    <line stroke="black" x1="233.72727272727275" y1="222.0" x2="233.72727272727275" y2="224.0"/>
    <line stroke="black" x1="231.72727272727275" y1="224.0" x2="235.72727272727275" y2="224.0"/>
    <rect x="246.22727272727272" y="203.0" height="33.0" width="20.454545454545453" fill="#9999FF" style="stroke:black"/>
    <text transform="translate(253.45454545454544,241.0) rotate(90)" text-anchor="start">14 to 15</text>
    <circle cx="256.45454545454544" cy="224" r="2" fill="black"/>
    <line stroke="black" x1="256.45454545454544" y1="224.0" x2="256.45454545454544" y2="223.0"/>
    <line stroke="black" x1="254.45454545454544" y1="223.0" x2="258.45454545454544" y2="223.0"/>
    <line stroke="black" x1="256.45454545454544" y1="224.0" x2="256.45454545454544" y2="225.0"/>
    <line stroke="black" x1="254.45454545454544" y1="225.0" x2="258.45454545454544" y2="225.0"/>
    <rect x="268.95454545454544" y="216.0" height="20.0" width="20.454545454545453" fill="#9999FF" style="stroke:black"/>
    <text transform="translate(276.1818181818182,241.0) rotate(90)" text-anchor="start">16 to 17</text>
    <circle cx="279.1818181818182" cy="224" r="2" fill="black"/>
    <line stroke="black" x1="279.1818181818182" y1="224.0" x2="279.1818181818182" y2="223.0"/>
    <line stroke="black" x1="277.1818181818182" y1="223.0" x2="281.1818181818182" y2="223.0"/>
    <line stroke="black" x1="279.1818181818182" y1="224.0" x2="279.1818181818182" y2="226.0"/>
    <line stroke="black" x1="277.1818181818182" y1="226.0" x2="281.1818181818182" y2="226.0"/>
    <rect x="291.68181818181813" y="220.0" height="16.0" width="20.454545454545453" fill="#9999FF" style="stroke:black"/>
    <text transform="translate(298.9090909090909,241.0) rotate(90)" text-anchor="start">18 to 19</text>
    <circle cx="301.9090909090909" cy="222" r="2" fill="black"/>
    <line stroke="black" x1="301.9090909090909" y1="222.0" x2="301.9090909090909" y2="220.0"/>
    <line stroke="black" x1="299.9090909090909" y1="220.0" x2="303.9090909090909" y2="220.0"/>
    <line stroke="black" x1="301.9090909090909" y1="222.0" x2="301.9090909090909" y2="224.0"/>
    <line stroke="black" x1="299.9090909090909" y1="224.0" x2="303.9090909090909" y2="224.0"/>
    <rect x="314.4090909090909" y="178.0" height="58.0" width="20.454545454545453" fill="#9999FF" style="stroke:black"/>
    <text transform="translate(321.6363636363636,241.0) rotate(90)" text-anchor="start">&gt;= 20</text>
    <circle cx="324.6363636363636" cy="224" r="2" fill="black"/>
    <line stroke="black" x1="324.6363636363636" y1="224.0" x2="324.6363636363636" y2="223.0"/>
    <line stroke="black" x1="322.6363636363636" y1="223.0" x2="326.6363636363636" y2="223.0"/>
    <line stroke="black" x1="324.6363636363636" y1="224.0" x2="324.6363636363636" y2="225.0"/>
    <line stroke="black" x1="322.6363636363636" y1="225.0" x2="326.6363636363636" y2="225.0"/>
    <line stroke-dasharray="10,5" stroke="black" x1="86.0" y1="223.0" x2="336.0" y2="223.0"/>
    <line stroke="black" x1="336.0" y1="20.0" x2="336.0" y2="236.0"/>
    <line stroke="black" x1="339.0" y1="236.0" x2="336.0" y2="236.0"/>
    <text transform="translate(343.0,236.0)" text-anchor="start"> 0.0</text>
    <line stroke="black" x1="339.0" y1="214.0" x2="336.0" y2="214.0"/>
    <text transform="translate(343.0,214.0)" text-anchor="start"> 0.1</text>
    <line stroke="black" x1="339.0" y1="193.0" x2="336.0" y2="193.0"/>
    <text transform="translate(343.0,193.0)" text-anchor="start"> 0.2</text>
    <line stroke="black" x1="339.0" y1="171.0" x2="336.0" y2="171.0"/>
    <text transform="translate(343.0,171.0)" text-anchor="start"> 0.3</text>
    <line stroke="black" x1="339.0" y1="150.0" x2="336.0" y2="150.0"/>
    <text transform="translate(343.0,150.0)" text-anchor="start"> 0.4</text>
    <line stroke="black" x1="339.0" y1="128.0" x2="336.0" y2="128.0"/>
    <text transform="translate(343.0,128.0)" text-anchor="start"> 0.5</text>
    <line stroke="black" x1="339.0" y1="106.0" x2="336.0" y2="106.0"/>
    <text transform="translate(343.0,106.0)" text-anchor="start"> 0.6</text>
    <line stroke="black" x1="339.0" y1="85.0" x2="336.0" y2="85.0"/>
    <text transform="translate(343.0,85.0)" text-anchor="start"> 0.7</text>
    <line stroke="black" x1="339.0" y1="63.0" x2="336.0" y2="63.0"/>
    <text transform="translate(343.0,63.0)" text-anchor="start"> 0.8</text>
    <line stroke="black" x1="339.0" y1="42.0" x2="336.0" y2="42.0"/>
    <text transform="translate(343.0,42.0)" text-anchor="start"> 0.9</text>
    <line stroke="black" x1="339.0" y1="20.0" x2="336.0" y2="20.0"/>
    <text transform="translate(343.0,20.0)" text-anchor="start"> 1.0</text>
    <text transform="translate(380.0,128.0) rotate(270)" text-anchor="middle">mean(RespondPress)</text>
  </g>
</svg>
